<svg xmlns="http://www.w3.org/2000/svg" width="1024" height="1024" preserveAspectRatio="none" style="display:block" viewBox="0 0 2048 2048" id="a0a3044c-a1fd-4bf0-a637-03d08f9e5d8e">
  <defs>
    <linearGradient id="Gradient1" x1="912.292" x2="915.082" y1="1074.12" y2="998.781" gradientUnits="userSpaceOnUse">
      <stop class="stop0" offset="0" stop-color="#EB8572"></stop>
      <stop class="stop1" offset="1" stop-color="#EAC6A6"></stop>
    </linearGradient>
    <linearGradient id="Gradient2" x1="952.573" x2="911.381" y1="1204.07" y2="1208.11" gradientUnits="userSpaceOnUse">
      <stop class="stop0" offset="0" stop-color="#701417"></stop>
      <stop class="stop1" offset="1" stop-color="#A12C28"></stop>
    </linearGradient>
    <linearGradient id="Gradient3" x1="1285.68" x2="886.256" y1="1198.7" y2="1419.24" gradientUnits="userSpaceOnUse">
      <stop class="stop0" offset="0" stop-color="#123139"></stop>
      <stop class="stop1" offset="1" stop-color="#1B4D5D"></stop>
    </linearGradient>
    <linearGradient id="Gradient4" x1="996.973" x2="962.271" y1="771.883" y2="585.698" gradientUnits="userSpaceOnUse">
      <stop class="stop0" offset="0" stop-color="#C0E9D6"></stop>
      <stop class="stop1" offset="1" stop-color="#F1FFFA"></stop>
    </linearGradient>
    <linearGradient id="Gradient5" x1="1171.89" x2="1012.39" y1="946.702" y2="820.209" gradientUnits="userSpaceOnUse">
      <stop class="stop0" offset="0" stop-color="#1B7764"></stop>
      <stop class="stop1" offset="1" stop-color="#96CAB9"></stop>
    </linearGradient>
    <linearGradient id="Gradient6" x1="1402.6" x2="523.614" y1="1082.01" y2="988.823" gradientUnits="userSpaceOnUse">
      <stop class="stop0" offset="0" stop-color="#215563"></stop>
      <stop class="stop1" offset="1" stop-color="#366D80"></stop>
    </linearGradient>
    <linearGradient id="Gradient7" x1="1596.71" x2="1482.21" y1="1261.29" y2="882.434" gradientUnits="userSpaceOnUse">
      <stop class="stop0" offset="0" stop-color="#0A6341"></stop>
      <stop class="stop1" offset="1" stop-color="#0E865B"></stop>
    </linearGradient>
    <linearGradient id="Gradient8" x1="1013.01" x2="1391.03" y1="1845.37" y2="1330.11" gradientUnits="userSpaceOnUse">
      <stop class="stop0" offset="0" stop-color="#AB563B"></stop>
      <stop class="stop1" offset="1" stop-color="#C98859"></stop>
    </linearGradient>
  </defs>
  <path fill="#E4B17E" d="M 0 0 L 2048 0 L 2048 2048 L 0 2048 L 0 0 z"></path>
  <path fill="#22A27B" d="M 1056.91 165.385 C 1068.21 176.055 1081.92 193.072 1092.3 205.299 L 1145.17 267.694 C 1185.5 315.533 1226.45 361.18 1266.94 409.559 L 1467.86 650.762 C 1519.6 712.386 1570.3 774.885 1619.92 838.231 C 1622.04 846.166 1621.84 878.392 1622.01 888.676 C 1622.98 949.244 1624.93 1014.24 1618.68 1074.51 C 1613.27 1126.61 1604.91 1190.68 1591.5 1241.03 C 1574.42 1299.22 1549.27 1367.6 1518.73 1420.37 C 1530.05 1436.71 1545.08 1452.58 1558.43 1467.48 L 1610.14 1524.98 C 1652.52 1571.3 1697.2 1621.58 1740.39 1666.75 C 1718.16 1685.97 1690.74 1704.22 1665.93 1720.22 C 1588.11 1770.39 1508.79 1818.36 1428.63 1864.72 C 1421.58 1868.8 1414.52 1872.56 1407.13 1876 C 1342.54 1870.55 1278.1 1863.33 1213.89 1854.36 C 1144.78 1844 1076.25 1830 1008.62 1812.4 C 957.456 1799.25 942.788 1799.53 901.28 1764.92 C 853.347 1724.95 807.261 1684.32 766.287 1636.8 C 739.924 1605.79 695.057 1553.98 684.763 1515.22 C 682.06 1505.04 683.478 1490.23 684.273 1479.66 C 679.804 1471.1 668.15 1454.33 662.508 1445.16 C 649.083 1423.16 636.1 1400.9 623.567 1378.38 C 577.434 1295.55 538.827 1208.74 508.21 1119.01 C 486.742 1057.53 468.595 984.424 456.026 920.682 C 427.324 778.582 415.778 633.551 421.633 488.699 C 422.028 479.354 423.561 421.629 425.129 418.388 L 429.136 417.316 L 428.937 416.079 C 436.789 411.424 446.373 407.318 454.614 403.049 L 502.528 377.626 L 551.716 351.021 C 557.571 347.864 567.187 341.784 572.979 339.695 C 595.025 331.747 619.161 327.855 641.603 321.438 C 731.065 295.858 819.779 270.37 905.67 234.131 C 956.449 212.706 1008.55 192.078 1056.91 165.385 z"></path>
  <path fill="url(#Gradient8)" d="M 1062.7 1753.35 C 1075.42 1750.77 1098.39 1740.17 1110.42 1734.63 C 1201.03 1692.86 1284.23 1635.6 1368.82 1582.91 L 1408.9 1558.17 C 1415.44 1554.22 1435.27 1543.4 1439.36 1538.61 C 1469.39 1503.49 1494.29 1459.19 1518.73 1420.37 C 1530.05 1436.71 1545.08 1452.58 1558.43 1467.48 L 1610.14 1524.98 C 1652.52 1571.3 1697.2 1621.58 1740.39 1666.75 C 1718.16 1685.97 1690.74 1704.22 1665.93 1720.22 C 1588.11 1770.39 1508.79 1818.36 1428.63 1864.72 C 1421.58 1868.8 1414.52 1872.56 1407.13 1876 C 1342.54 1870.55 1278.1 1863.33 1213.89 1854.36 C 1144.78 1844 1076.25 1830 1008.62 1812.4 C 957.456 1799.25 942.788 1799.53 901.28 1764.92 C 853.347 1724.95 807.261 1684.32 766.287 1636.8 C 739.924 1605.79 695.057 1553.98 684.763 1515.22 C 682.06 1505.04 683.478 1490.23 684.273 1479.66 C 694.418 1493.65 704.127 1508.95 714.294 1523.29 C 738.476 1557.46 763.677 1590.9 789.863 1623.55 C 809.154 1647.38 834.661 1673.98 855.928 1696.34 C 883.894 1725.75 914.494 1758.53 943.877 1786.37 C 974.971 1780.59 1003.99 1773 1033.94 1762.83 C 1042.67 1759.87 1054.45 1756.64 1062.7 1753.35 z"></path>
  <path fill="#FDE8AE" d="M 1056.91 165.385 C 1068.21 176.055 1081.92 193.072 1092.3 205.299 L 1145.17 267.694 C 1185.5 315.533 1226.45 361.18 1266.94 409.559 L 1467.86 650.762 C 1519.6 712.386 1570.3 774.885 1619.92 838.231 C 1575.37 863.433 1533.73 885.711 1490.07 912.694 C 1486.95 910.479 1457.41 874.408 1453.85 870.11 L 1367 765.749 C 1264.45 640.731 1161.2 516.282 1057.27 392.409 C 1018.49 346.216 980.955 298.56 940.79 253.263 C 914.391 268.18 875.363 289.693 847.626 301.865 C 753.774 343.048 653.712 375.025 553.442 396.191 C 509.919 405.378 473.975 413.841 429.136 417.316 L 428.937 416.079 C 436.789 411.424 446.373 407.318 454.614 403.049 L 502.528 377.626 L 551.716 351.021 C 557.571 347.864 567.187 341.784 572.979 339.695 C 595.025 331.747 619.161 327.855 641.603 321.438 C 731.065 295.858 819.779 270.37 905.67 234.131 C 956.449 212.706 1008.55 192.078 1056.91 165.385 z"></path>
  <path fill="url(#Gradient7)" d="M 1619.92 838.231 C 1622.04 846.166 1621.84 878.392 1622.01 888.676 C 1622.98 949.244 1624.93 1014.24 1618.68 1074.51 C 1613.27 1126.61 1604.91 1190.68 1591.5 1241.03 C 1583.35 1240.61 1565.36 1251.84 1557.44 1255.86 L 1488.72 1291.19 C 1482.2 1294.54 1465.9 1303.41 1459.29 1304.67 C 1464.11 1279.49 1470.46 1256.71 1474.53 1230.65 C 1486.58 1153.66 1490.43 1079.79 1489.09 1002.09 C 1488.89 990.535 1487.36 916.606 1490.07 912.694 C 1533.73 885.711 1575.37 863.433 1619.92 838.231 z"></path>
  <path fill="#07543E" d="M 1459.29 1304.67 C 1465.9 1303.41 1482.2 1294.54 1488.72 1291.19 L 1557.44 1255.86 C 1565.36 1251.84 1583.35 1240.61 1591.5 1241.03 C 1574.42 1299.22 1549.27 1367.6 1518.73 1420.37 C 1494.29 1459.19 1469.39 1503.49 1439.36 1538.61 C 1435.27 1543.4 1415.44 1554.22 1408.9 1558.17 L 1368.82 1582.91 C 1284.23 1635.6 1201.03 1692.86 1110.42 1734.63 C 1098.39 1740.17 1075.42 1750.77 1062.7 1753.35 C 1066.29 1750.99 1072.8 1748.67 1076.97 1746.88 C 1157.86 1712.31 1237.6 1663.62 1301.61 1602.85 C 1339.94 1566.45 1370.17 1513.88 1395.55 1467.86 C 1423.56 1417.08 1444.73 1360.92 1459.29 1304.67 z"></path>
  <path fill="url(#Gradient6)" d="M 937.486 383.76 L 944.364 392.354 C 976.864 432.572 1010.4 471.171 1043.42 510.929 L 1241.81 749.084 L 1329.47 853.75 C 1353.88 882.678 1384.95 918.715 1407.59 949.121 C 1407.59 958.44 1407.24 975.312 1406.24 984.566 C 1405.6 1014.26 1406.37 1045.24 1404.17 1074.77 C 1399.23 1141.13 1392.62 1211.23 1372.33 1274.8 C 1364.49 1298.93 1355.44 1322.65 1345.24 1345.87 C 1342.69 1351.75 1332.96 1370.03 1331.81 1374.08 C 1331.78 1384.78 1286.43 1454.62 1277.31 1462.76 L 1275.77 1461.78 C 1229.12 1530.2 1088.87 1604.32 1009.55 1626.1 C 810.622 1484.41 677.871 1207.29 611.598 977.118 C 602.552 945.698 596.909 910.168 591.414 877.773 C 589.359 865.381 587.095 853.025 584.621 840.711 C 581.552 826.007 578.45 815.933 577.607 800.708 C 577.875 795.911 575.178 774.838 574.466 768.363 C 572.416 749.324 570.514 730.269 568.759 711.2 C 564.968 669.12 564.851 630.792 564.753 588.767 C 560.682 581.084 565.082 546.235 565.008 536.09 C 564.972 531.198 563.906 525.397 564.751 520.74 C 562.884 522.303 563.916 542.297 561.537 547.935 C 561.519 547.894 562.484 508.727 562.501 504.614 C 671.695 488.399 779.074 452.871 880.719 410.253 C 900.034 402.155 918.558 392.688 937.486 383.76 z"></path>
  <path fill="#1C4759" d="M 937.486 383.76 L 944.364 392.354 C 976.864 432.572 1010.4 471.171 1043.42 510.929 L 1241.81 749.084 L 1329.47 853.75 C 1353.88 882.678 1384.95 918.715 1407.59 949.121 C 1407.59 958.44 1407.24 975.312 1406.24 984.566 C 1398.85 981.041 1363.01 933.684 1354.8 923.3 L 1289.7 841.518 L 1088.88 593.694 C 1065 564.594 1038.95 536.103 1014.39 507.492 C 998.286 488.727 983.225 468.905 966.359 450.83 C 941.556 465.445 913.236 475.854 886.439 486.591 C 814.521 515.093 741.112 539.677 666.534 560.236 C 633.31 569.608 598.688 579.876 564.864 586.249 L 564.753 588.767 C 560.682 581.084 565.082 546.235 565.008 536.09 C 564.972 531.198 563.906 525.397 564.751 520.74 C 562.884 522.303 563.916 542.297 561.537 547.935 C 561.519 547.894 562.484 508.727 562.501 504.614 C 671.695 488.399 779.074 452.871 880.719 410.253 C 900.034 402.155 918.558 392.688 937.486 383.76 z"></path>
  <path fill="#143745" d="M 937.486 383.76 L 944.364 392.354 C 913.307 412.592 888.842 422.915 854.35 437.169 C 808.155 456.378 760.828 472.741 712.634 486.167 C 677.9 495.651 642.893 503.038 607.543 510.044 C 596.619 512.208 577.087 516.379 567.006 519.765 C 564.897 520.473 564.788 580.527 564.864 586.249 L 564.753 588.767 C 560.682 581.084 565.082 546.235 565.008 536.09 C 564.972 531.198 563.906 525.397 564.751 520.74 C 562.884 522.303 563.916 542.297 561.537 547.935 C 561.519 547.894 562.484 508.727 562.501 504.614 C 671.695 488.399 779.074 452.871 880.719 410.253 C 900.034 402.155 918.558 392.688 937.486 383.76 z"></path>
  <path fill="#7BDBB4" d="M 1331.81 1374.08 C 1331.78 1384.78 1286.43 1454.62 1277.31 1462.76 L 1275.77 1461.78 C 1296.08 1431.75 1314.51 1406.58 1331.81 1374.08 z"></path>
  <path fill="#F07040" d="M 840.837 629.451 C 849.734 625.733 870.466 615.453 878.025 610.152 C 919.181 581.292 929.834 597.704 966.327 621.869 L 1036.71 667.781 C 1058.06 681.609 1098.98 701.537 1109.61 726.064 C 1114.64 732.12 1118.63 740.848 1121.79 748.049 C 1128.46 761.271 1133.55 781.016 1134.66 795.799 C 1135.15 792.635 1134.69 791.487 1136.51 789.783 C 1139.43 793.358 1143.26 807.007 1144.98 811.811 C 1157.77 847.597 1161.04 878.748 1160.08 916.64 C 1159.43 942.447 1159.63 970.924 1160.08 997.176 C 1173.42 1005.09 1185.76 1012.53 1198.26 1021.84 C 1198.19 1030.59 1198 1039.33 1197.7 1048.08 C 1207.19 1061.25 1216.86 1075.05 1226.78 1087.83 C 1227.29 1148.86 1226.08 1210.57 1226.38 1271.82 C 1226.79 1312.09 1226.75 1352.35 1226.27 1392.62 C 1226.1 1406.17 1226.54 1422.65 1225.83 1435.76 C 1223.57 1439.54 1221.34 1442.86 1218.04 1445.81 C 1207.2 1455.52 1142.08 1501.59 1131.77 1504.16 C 1127.61 1505.19 1119.03 1499.81 1115.29 1497.69 C 1086.8 1481.55 1059.78 1462.12 1031.8 1445.03 L 945.048 1391.44 C 916.929 1374.31 888.73 1357.6 861.04 1339.98 C 834.288 1322.96 816.543 1302.19 805.009 1272.45 C 802.154 1265.08 797.107 1252.92 798.243 1245.15 C 794.155 1241.74 783.577 1234.98 778.697 1232.11 C 750.342 1215.39 731.82 1183.19 729.438 1150.61 C 728.281 1134.78 729.068 1115.68 729.099 1099.44 L 729.307 1005.68 L 729.072 922.564 C 729.021 907.422 726.962 875.104 732.906 862.556 C 738.584 853.309 745.423 850.14 754.737 845.111 C 771.749 835.432 788.868 824.667 805.502 814.329 C 807.178 805.334 806.209 794.572 806.241 785.345 C 806.327 760.521 803.153 680.925 810.477 661.382 C 816.089 646.406 826.42 635.944 840.837 629.451 z"></path>
  <path fill="#7BDBB4" d="M 840.837 629.451 C 849.734 625.733 870.466 615.453 878.025 610.152 C 919.181 581.292 929.834 597.704 966.327 621.869 L 1036.71 667.781 C 1058.06 681.609 1098.98 701.537 1109.61 726.064 C 1114.64 732.12 1118.63 740.848 1121.79 748.049 C 1128.46 761.271 1133.55 781.016 1134.66 795.799 C 1135.15 792.635 1134.69 791.487 1136.51 789.783 C 1139.43 793.358 1143.26 807.007 1144.98 811.811 C 1157.77 847.597 1161.04 878.748 1160.08 916.64 C 1159.43 942.447 1159.63 970.924 1160.08 997.176 C 1173.42 1005.09 1185.76 1012.53 1198.26 1021.84 C 1173.19 1038.31 1145.17 1054.65 1120.82 1071.39 C 1115.38 1074.98 1103.9 1082.84 1098.3 1085.47 C 1086.67 1076.51 1065.23 1064.28 1052.12 1056.22 L 982.942 1012.93 C 926.312 976.654 869.005 941.448 811.051 907.329 C 786.211 892.621 758.724 874.605 732.906 862.556 C 738.584 853.309 745.423 850.14 754.737 845.111 C 771.749 835.432 788.868 824.667 805.502 814.329 C 807.178 805.334 806.209 794.572 806.241 785.345 C 806.327 760.521 803.153 680.925 810.477 661.382 C 816.089 646.406 826.42 635.944 840.837 629.451 z"></path>
  <path fill="#F07040" d="M 805.502 814.329 C 805.23 829.662 804.829 847.397 805.802 862.71 C 825.703 873.596 845.093 885.389 863.912 898.053 L 865.102 899.379 C 877.723 890.766 908.19 871.814 917.56 861.838 C 923.365 864.673 932.447 869.183 937.623 873.125 C 955.044 883.671 992.692 904.69 1007 915.922 L 1006.88 990.056 C 1029.25 1002.74 1054.57 1020.6 1075.92 1032.03 L 1079.43 1030.24 C 1085.19 1026.34 1094.6 1021.6 1100.88 1017.81 C 1111.5 1011.4 1122.14 1004.69 1132.85 998.502 C 1132.57 992.326 1132.58 986.915 1132.64 980.748 C 1141.78 988.848 1149.52 990.209 1157.43 996.422 L 1160.08 997.176 C 1173.42 1005.09 1185.76 1012.53 1198.26 1021.84 C 1173.19 1038.31 1145.17 1054.65 1120.82 1071.39 C 1115.38 1074.98 1103.9 1082.84 1098.3 1085.47 C 1086.67 1076.51 1065.23 1064.28 1052.12 1056.22 L 982.942 1012.93 C 926.312 976.654 869.005 941.448 811.051 907.329 C 786.211 892.621 758.724 874.605 732.906 862.556 C 738.584 853.309 745.423 850.14 754.737 845.111 C 771.749 835.432 788.868 824.667 805.502 814.329 z"></path>
  <path fill="#E4B17E" d="M 732.906 862.556 C 738.584 853.309 745.423 850.14 754.737 845.111 C 767.663 850.584 795.042 868.614 808.511 876.919 L 930.401 953.309 L 1059.03 1031.87 C 1067.04 1036.75 1115.56 1065.93 1120.82 1071.39 C 1115.38 1074.98 1103.9 1082.84 1098.3 1085.47 C 1086.67 1076.51 1065.23 1064.28 1052.12 1056.22 L 982.942 1012.93 C 926.312 976.654 869.005 941.448 811.051 907.329 C 786.211 892.621 758.724 874.605 732.906 862.556 z"></path>
  <path fill="#BF4839" d="M917.56 861.838C923.365 864.673 932.447 869.183 937.623 873.125 924.81 879.348 881.9 905.321 869.272 901.176 867.82 900.699 866.428 900.135 865.102 899.379 877.723 890.766 908.19 871.814 917.56 861.838zM1132.64 980.748C1141.78 988.848 1149.52 990.209 1157.43 996.422 1151.92 998.59 1143.76 1004.1 1138.6 1007.52 1120.88 1019.24 1101.01 1028.92 1079.43 1030.24 1085.19 1026.34 1094.6 1021.6 1100.88 1017.81 1111.5 1011.4 1122.14 1004.69 1132.85 998.502 1132.57 992.326 1132.58 986.915 1132.64 980.748z"></path>
  <path fill="url(#Gradient5)" d="M 1121.79 748.049 C 1128.46 761.271 1133.55 781.016 1134.66 795.799 C 1135.15 792.635 1134.69 791.487 1136.51 789.783 C 1139.43 793.358 1143.26 807.007 1144.98 811.811 C 1157.77 847.597 1161.04 878.748 1160.08 916.64 C 1159.43 942.447 1159.63 970.924 1160.08 997.176 L 1157.43 996.422 C 1149.52 990.209 1141.78 988.848 1132.64 980.748 C 1132.58 986.915 1132.57 992.326 1132.85 998.502 C 1122.14 1004.69 1111.5 1011.4 1100.88 1017.81 C 1094.6 1021.6 1085.19 1026.34 1079.43 1030.24 L 1075.92 1032.03 C 1075.38 979.166 1076.11 926.051 1076.6 873.179 C 1076.7 862.455 1077.09 851.984 1076.45 841.248 C 1074.18 814.947 1064.75 793.476 1053.01 770.073 C 1061.71 767.883 1076.21 760.449 1085.66 757.555 C 1096.12 754.346 1113.26 753.455 1121.79 748.049 z"></path>
  <path fill="#143745" d="M 1134.66 795.799 C 1135.15 792.635 1134.69 791.487 1136.51 789.783 C 1139.43 793.358 1143.26 807.007 1144.98 811.811 C 1157.77 847.597 1161.04 878.748 1160.08 916.64 C 1159.43 942.447 1159.63 970.924 1160.08 997.176 L 1157.43 996.422 C 1149.52 990.209 1141.78 988.848 1132.64 980.748 C 1133.81 929.929 1134.46 879.1 1134.58 828.268 C 1134.78 817.265 1134.97 806.813 1134.66 795.799 z"></path>
  <path fill="url(#Gradient4)" d="M 840.837 629.451 C 849.734 625.733 870.466 615.453 878.025 610.152 C 919.181 581.292 929.834 597.704 966.327 621.869 L 1036.71 667.781 C 1058.06 681.609 1098.98 701.537 1109.61 726.064 C 1114.64 732.12 1118.63 740.848 1121.79 748.049 C 1113.26 753.455 1096.12 754.346 1085.66 757.555 C 1076.21 760.449 1061.71 767.883 1053.01 770.073 C 1050.02 765.523 1043.3 758.173 1041.54 753.973 C 1022.27 730.951 1014.37 728.289 988.905 712.377 L 936.829 679.137 C 919.24 667.925 901.693 656.47 884.326 644.919 C 869.62 635.138 858.064 631.875 840.837 629.451 z"></path>
  <path fill="#A2D7C0" d="M 1109.61 726.064 C 1114.64 732.12 1118.63 740.848 1121.79 748.049 C 1113.26 753.455 1096.12 754.346 1085.66 757.555 C 1076.21 760.449 1061.71 767.883 1053.01 770.073 C 1050.02 765.523 1043.3 758.173 1041.54 753.973 L 1043.15 753.985 L 1049.95 761.945 C 1059.31 758.944 1065.59 753.457 1076.19 750.316 C 1088.27 746.736 1104.28 744.532 1115.47 740.943 C 1114.41 735.325 1109.56 731.051 1109.61 726.064 z"></path>
  <path fill="#143745" d="M 916.252 740.3 C 935.478 753.66 954.32 766.368 974.633 778.429 C 986.52 785.487 1003.76 796.51 1006.34 811.448 C 1008.2 827.241 1007.21 845.137 1007.23 861.265 C 1007.28 879.484 1007.21 897.704 1007 915.922 C 992.692 904.69 955.044 883.671 937.623 873.125 C 932.447 869.183 923.365 864.673 917.56 861.838 C 914.827 856.328 916.064 810.064 916.083 801.606 C 916.016 781.171 916.072 760.735 916.252 740.3 z"></path>
  <path fill="#117850" d="M 916.083 801.606 C 925.018 806.397 933.419 811.621 941.843 817.247 C 963.608 831.784 986.517 845.234 1007.23 861.265 C 1007.28 879.484 1007.21 897.704 1007 915.922 C 992.692 904.69 955.044 883.671 937.623 873.125 C 932.447 869.183 923.365 864.673 917.56 861.838 C 914.827 856.328 916.064 810.064 916.083 801.606 z"></path>
  <path fill="#5B8482" d="M 863.912 898.053 L 864.462 786.317 C 864.611 768.468 864.434 750.407 865.476 732.601 C 865.25 727.904 870.226 717.645 875.833 718.103 C 888.203 719.114 906.879 732.616 916.252 740.3 C 916.072 760.735 916.016 781.171 916.083 801.606 C 916.064 810.064 914.827 856.328 917.56 861.838 C 908.19 871.814 877.723 890.766 865.102 899.379 L 863.912 898.053 z"></path>
  <path fill="url(#Gradient3)" d="M 1198.26 1021.84 C 1198.19 1030.59 1198 1039.33 1197.7 1048.08 C 1207.19 1061.25 1216.86 1075.05 1226.78 1087.83 C 1227.29 1148.86 1226.08 1210.57 1226.38 1271.82 C 1226.79 1312.09 1226.75 1352.35 1226.27 1392.62 C 1226.1 1406.17 1226.54 1422.65 1225.83 1435.76 C 1223.57 1439.54 1221.34 1442.86 1218.04 1445.81 C 1207.2 1455.52 1142.08 1501.59 1131.77 1504.16 C 1127.61 1505.19 1119.03 1499.81 1115.29 1497.69 C 1086.8 1481.55 1059.78 1462.12 1031.8 1445.03 L 945.048 1391.44 C 916.929 1374.31 888.73 1357.6 861.04 1339.98 C 834.288 1322.96 816.543 1302.19 805.009 1272.45 C 802.154 1265.08 797.107 1252.92 798.243 1245.15 L 982.753 1357.69 L 1037.06 1390.71 C 1048.41 1397.65 1069.46 1413.33 1082.24 1412.49 C 1090.09 1406.63 1093.68 1402.39 1094.62 1392.33 C 1095.88 1378.89 1095.91 1365.25 1095.95 1351.75 L 1096.16 1292.61 C 1096.16 1223.56 1096.87 1154.51 1098.3 1085.47 C 1103.9 1082.84 1115.38 1074.98 1120.82 1071.39 C 1145.17 1054.65 1173.19 1038.31 1198.26 1021.84 z"></path>
  <path fill="#97281C" d="M 1198.26 1021.84 C 1198.19 1030.59 1198 1039.33 1197.7 1048.08 L 1197.58 1049.03 C 1194.84 1071.8 1195.88 1116.12 1195.72 1140.67 C 1195.44 1190.04 1194.6 1239.41 1193.2 1288.77 C 1192.95 1298.27 1192.9 1307.91 1192.45 1317.35 C 1191.54 1336.63 1196.08 1351.06 1177.64 1363.68 C 1153.96 1379.9 1128.28 1395.49 1103.54 1410.15 C 1096.66 1414.22 1089.8 1413.74 1082.24 1412.49 C 1090.09 1406.63 1093.68 1402.39 1094.62 1392.33 C 1095.88 1378.89 1095.91 1365.25 1095.95 1351.75 L 1096.16 1292.61 C 1096.16 1223.56 1096.87 1154.51 1098.3 1085.47 C 1103.9 1082.84 1115.38 1074.98 1120.82 1071.39 C 1145.17 1054.65 1173.19 1038.31 1198.26 1021.84 z"></path>
  <path fill="#BF4839" d="M 860.481 1014.61 C 861.723 999.917 882.127 994.862 894.339 996.955 C 916.348 1000.73 934.491 1020.48 947.468 1037.45 C 954.113 1046.51 966.745 1068.9 966.895 1079.94 C 964.777 1081.86 962.074 1081.9 959.133 1082.41 C 961.235 1088.26 966.071 1087.99 968.45 1091.69 C 978.061 1106.65 973.264 1148.55 955.661 1156.28 C 953.177 1158.06 949.29 1159.81 948.807 1162.99 C 946.573 1177.65 963.367 1246.5 956.554 1252.5 C 952.14 1256.38 941.855 1255.98 936.267 1255.36 C 927.128 1254.35 920.324 1250.68 912.855 1245.71 C 902.56 1239.25 894.868 1232 888.165 1221.9 C 886.303 1189.87 888.888 1156.01 886.121 1124.2 C 885.966 1122.42 877.695 1111.76 876.165 1108.83 C 860.496 1078.92 843.374 1047.86 860.481 1014.61 z"></path>
  <path fill="url(#Gradient2)" d="M 912.855 1245.71 C 916.365 1236.18 911.484 1178.49 915.875 1164.32 C 920.773 1148.52 933.113 1161.78 944.147 1155.87 C 945.798 1154.98 947.281 1154.31 948.956 1153.51 C 949.088 1154.92 949.067 1154.28 949.031 1155.86 L 948.997 1157.05 L 950.41 1157.82 C 952.604 1156.98 953.363 1156.79 955.661 1156.28 C 953.177 1158.06 949.29 1159.81 948.807 1162.99 C 946.573 1177.65 963.367 1246.5 956.554 1252.5 C 952.14 1256.38 941.855 1255.98 936.267 1255.36 C 927.128 1254.35 920.324 1250.68 912.855 1245.71 z"></path>
  <path fill="url(#Gradient1)" d="M 860.481 1014.61 C 861.723 999.917 882.127 994.862 894.339 996.955 C 916.348 1000.73 934.491 1020.48 947.468 1037.45 C 954.113 1046.51 966.745 1068.9 966.895 1079.94 C 964.777 1081.86 962.074 1081.9 959.133 1082.41 C 954.248 1067.79 945.192 1049.7 935.576 1037.64 C 918.577 1016.32 886.58 992.222 860.481 1014.61 z"></path>
  <path fill="#07543E" d="M 562.501 504.614 C 562.484 508.727 561.519 547.894 561.537 547.935 C 563.916 542.297 562.884 522.303 564.751 520.74 C 563.906 525.397 564.972 531.198 565.008 536.09 C 565.082 546.235 560.682 581.084 564.753 588.767 C 564.851 630.792 564.968 669.12 568.759 711.2 C 570.514 730.269 572.416 749.324 574.466 768.363 C 575.178 774.838 577.875 795.911 577.607 800.708 C 575.854 797.173 571.851 753.945 571.209 747.129 C 570.834 743.148 570.606 735.085 569.587 730.839 C 569.087 728.755 568.194 728.524 568.78 725.9 C 569.236 723.851 569.082 724.121 568.61 722.12 C 565.431 722.542 564.899 722.05 562.86 723.784 C 563.445 740.961 569.472 781.224 568.546 794.045 C 563.337 777.039 563.58 736.507 560.769 716.662 C 556.367 685.582 562.901 643.554 554.552 613.704 C 547.285 587.72 513.252 538.154 510.069 513.16 C 513.501 510.301 554.997 505.61 562.501 504.614 z"></path>
  <path fill="#7BDBB4" d="M 1275.77 1461.78 L 1277.31 1462.76 C 1258.62 1490.81 1237.58 1511.48 1212.7 1533.65 C 1136.17 1601.87 1044.65 1640.2 944.596 1660.25 L 941.893 1660.79 C 925.161 1647.44 838.495 1569.98 832.657 1556.6 C 842.956 1565.73 852.014 1576.6 861.763 1586.35 C 872.822 1597.4 936.767 1659.71 946.71 1658.8 C 960.124 1657.57 974.137 1652.05 987.229 1648.77 C 990.752 1647.89 994.572 1647.91 997.992 1646.88 C 1003.09 1645.34 1007.47 1642.35 1012.84 1641.79 C 1012.86 1635.65 1009.37 1638.92 1009.22 1631.04 C 1003.11 1624.8 968.964 1645.17 962.924 1640.39 C 935.69 1618.84 910.202 1593.88 885.701 1569.23 C 881.506 1565.01 869.552 1554.21 867.172 1549.89 L 867.523 1548.9 C 900.244 1583.38 928.954 1609.11 964.344 1640.67 C 977.848 1636.58 996.588 1631.19 1009.55 1626.1 C 1088.87 1604.32 1229.12 1530.2 1275.77 1461.78 z"></path>
</svg>
