<svg xmlns="http://www.w3.org/2000/svg" width="1024" height="1024" preserveAspectRatio="none" style="display:block" viewBox="0 0 2048 2048" id="a0a303f3-8d9d-4a6c-92ac-777891978c3b">
  <defs>
    <linearGradient id="Gradient1" x1="842.42" x2="733.465" y1="1093.73" y2="1003.01" gradientUnits="userSpaceOnUse">
      <stop class="stop0" offset="0" stop-color="#0B756C"></stop>
      <stop class="stop1" offset="1" stop-color="#1AC09C"></stop>
    </linearGradient>
    <linearGradient id="Gradient2" x1="977.506" x2="939.935" y1="1115.35" y2="1138.75" gradientUnits="userSpaceOnUse">
      <stop class="stop0" offset="0" stop-color="#C5CACB"></stop>
      <stop class="stop1" offset="1" stop-color="#FFF0FB"></stop>
    </linearGradient>
    <linearGradient id="Gradient3" x1="893.004" x2="846.929" y1="1153.86" y2="1107.34" gradientUnits="userSpaceOnUse">
      <stop class="stop0" offset="0" stop-color="#48BEA3"></stop>
      <stop class="stop1" offset="1" stop-color="#64DEBD"></stop>
    </linearGradient>
    <linearGradient id="Gradient4" x1="838.1" x2="785.653" y1="1408.81" y2="1341.81" gradientUnits="userSpaceOnUse">
      <stop class="stop0" offset="0" stop-color="#FFB032"></stop>
      <stop class="stop1" offset="1" stop-color="#FFD276"></stop>
    </linearGradient>
    <linearGradient id="Gradient5" x1="657.083" x2="641.218" y1="1121.03" y2="1107.31" gradientUnits="userSpaceOnUse">
      <stop class="stop0" offset="0" stop-color="#F77327"></stop>
      <stop class="stop1" offset="1" stop-color="#C03E31"></stop>
    </linearGradient>
    <linearGradient id="Gradient6" x1="658.947" x2="802.161" y1="2010.31" y2="1500.8" gradientUnits="userSpaceOnUse">
      <stop class="stop0" offset="0" stop-color="#169C62"></stop>
      <stop class="stop1" offset="1" stop-color="#9AB985"></stop>
    </linearGradient>
    <linearGradient id="Gradient7" x1="521.109" x2="344.036" y1="1680.11" y2="1516.91" gradientUnits="userSpaceOnUse">
      <stop class="stop0" offset="0" stop-color="#E76918"></stop>
      <stop class="stop1" offset="1" stop-color="#FFCA56"></stop>
    </linearGradient>
    <linearGradient id="Gradient8" x1="458.184" x2="552.839" y1="1477.64" y2="1570.01" gradientUnits="userSpaceOnUse">
      <stop class="stop0" offset="0" stop-color="#FFAA25"></stop>
      <stop class="stop1" offset="1" stop-color="#E64F2E"></stop>
    </linearGradient>
    <linearGradient id="Gradient9" x1="1221.19" x2="1205.07" y1="818.996" y2="717.291" gradientUnits="userSpaceOnUse">
      <stop class="stop0" offset="0" stop-color="#A9B47E"></stop>
      <stop class="stop1" offset="1" stop-color="#E5CCAF"></stop>
    </linearGradient>
    <linearGradient id="Gradient10" x1="1426.94" x2="1354.12" y1="605.415" y2="535.692" gradientUnits="userSpaceOnUse">
      <stop class="stop0" offset="0" stop-color="#F4801C"></stop>
      <stop class="stop1" offset="1" stop-color="#FFC751"></stop>
    </linearGradient>
    <linearGradient id="Gradient11" x1="1456.24" x2="1345.62" y1="633.065" y2="529.031" gradientUnits="userSpaceOnUse">
      <stop class="stop0" offset="0" stop-color="#CF4722"></stop>
      <stop class="stop1" offset="1" stop-color="#FF7A31"></stop>
    </linearGradient>
    <linearGradient id="Gradient12" x1="1229.51" x2="1149.39" y1="916.551" y2="837.785" gradientUnits="userSpaceOnUse">
      <stop class="stop0" offset="0" stop-color="#0F8063"></stop>
      <stop class="stop1" offset="1" stop-color="#0DA886"></stop>
    </linearGradient>
    <linearGradient id="Gradient13" x1="1612.39" x2="1540.24" y1="514.934" y2="449.924" gradientUnits="userSpaceOnUse">
      <stop class="stop0" offset="0" stop-color="#0D8363"></stop>
      <stop class="stop1" offset="1" stop-color="#0BA17A"></stop>
    </linearGradient>
    <linearGradient id="Gradient14" x1="1087.1" x2="1045.9" y1="1309.05" y2="1264.95" gradientUnits="userSpaceOnUse">
      <stop class="stop0" offset="0" stop-color="#ED6D57"></stop>
      <stop class="stop1" offset="1" stop-color="#FF996C"></stop>
    </linearGradient>
    <linearGradient id="Gradient15" x1="1249.23" x2="1253.38" y1="496.192" y2="501.319" gradientUnits="userSpaceOnUse">
      <stop class="stop0" offset="0" stop-color="#E5DEBA"></stop>
      <stop class="stop1" offset="1" stop-color="#F5D9C0"></stop>
    </linearGradient>
    <linearGradient id="Gradient16" x1="996.651" x2="875.426" y1="755.767" y2="638.216" gradientUnits="userSpaceOnUse">
      <stop class="stop0" offset="0" stop-color="#F25F3A"></stop>
      <stop class="stop1" offset="1" stop-color="#F9884F"></stop>
    </linearGradient>
    <linearGradient id="Gradient17" x1="1282.84" x2="1185.5" y1="713.782" y2="598.263" gradientUnits="userSpaceOnUse">
      <stop class="stop0" offset="0" stop-color="#26AC77"></stop>
      <stop class="stop1" offset="1" stop-color="#7AD9B9"></stop>
    </linearGradient>
  </defs>
  <path fill="#DECCAA" d="M 0 0 L 2048 0 L 2048 2048 L 0 2048 L 0 0 z"></path>
  <path fill="url(#Gradient17)" d="M 1587.23 264.423 C 1590.2 263.844 1590.05 263.908 1593.07 264.373 L 1606.03 279.518 C 1611.79 286.058 1617.52 292.633 1623.2 299.242 C 1633.4 311.758 1646.33 326.171 1657.37 338.166 L 1657.93 338.391 C 1669.04 350.506 1686.23 367.249 1698.71 378.196 L 1701.74 381.265 C 1712.13 390.168 1722.18 399.458 1731.88 409.117 C 1688.11 523.428 1615.74 624.593 1521.69 702.927 C 1527.94 719.7 1531.92 736.09 1535.36 753.604 C 1542.84 810.056 1537.27 856.92 1514.07 909.445 C 1493.58 955.81 1466.06 981.104 1431.81 1016.87 C 1403.48 1046.93 1374.78 1076.64 1345.73 1106.01 C 1275.28 1178.08 1206.64 1250.69 1135.33 1322.29 C 1098.6 1361.85 1054.75 1400.15 1017.87 1440.72 C 1018.53 1423.18 1019.36 1396.24 1021.86 1379.19 C 1021.98 1361.35 1025.84 1340.44 1026.02 1320.5 C 1030.51 1314.22 1037.27 1306.95 1042.36 1301.02 C 1064.63 1275.02 1086.65 1248.01 1101.89 1217.15 C 1107.1 1206.6 1111.09 1195.34 1116.39 1184.76 L 1118.64 1177.15 C 1123.3 1148.43 1121.49 1132.62 1112.45 1105.63 C 1094.26 1125.1 1073.53 1143.73 1054.87 1162.83 C 1048.86 1168.99 1031.33 1184.7 1027.18 1190.62 C 1016.22 1178.86 1006.72 1169.65 995.044 1158.56 C 975 1139.11 954.612 1120.02 933.889 1101.3 C 921.199 1088.77 908.685 1076.06 896.352 1063.17 L 894.686 1062.43 C 893.397 1060.58 886.645 1053.82 884.202 1050.76 C 866.889 1033.91 843.835 1012.16 828.458 994.064 C 820.211 984.898 808.383 973.645 799.317 965.273 C 794.649 961.17 787.468 952.762 781.559 954.77 C 774.382 964.169 761.914 975.973 753.174 984.505 C 752.274 982.081 746.587 971.87 745.015 968.771 C 736.784 952.982 732.453 936.444 732.317 918.63 C 732.244 909.027 736.285 896.127 734.844 887.083 L 729.389 891.124 C 728.639 880.937 728.833 869.213 728.157 858.43 C 710.472 877.672 690.872 896.283 672.552 915.084 C 664.193 923.662 644.665 945.011 635.806 951.082 L 635.195 885.696 C 645.881 871.488 675.935 842.694 689.743 828.717 L 780.251 735.889 L 911.006 601.398 C 929.368 582.605 946.063 562.801 965.438 544.825 C 1007.43 505.863 1053.02 481.148 1108.93 468.032 C 1151.31 457.969 1195.43 457.702 1237.92 467.251 C 1246.64 469.13 1261.14 472.701 1268.68 477.383 L 1268.97 479.044 L 1272.1 481.29 C 1276.39 477.448 1288.05 463.587 1292.41 458.676 C 1304.14 445.359 1316.17 432.31 1328.5 419.539 C 1387.37 358.524 1446.03 307.524 1527.79 280.531 C 1548.64 273.649 1566.05 269.859 1587.23 264.423 z"></path>
  <path fill="#0CCA8D" d="M 1587.23 264.423 L 1588.24 265.555 C 1581.07 273.342 1554.34 289.609 1544.59 297.424 C 1521.15 316.199 1497.28 335.882 1475.14 356.15 C 1453.24 376.333 1431.72 396.92 1410.59 417.899 C 1395.06 433.575 1379.8 450.482 1363.88 465.614 C 1298.57 527.717 1232.59 589.311 1170.05 654.249 C 1156.49 668.329 1140.67 681.331 1127.51 695.478 C 1101.32 720.776 1076.36 747.942 1049.72 772.887 C 1045.82 776.535 1040.6 781.822 1037.2 785.828 C 1028.11 793.521 1019.3 803.277 1010.76 811.689 C 949.385 872.181 890.72 934.486 828.458 994.064 C 820.211 984.898 808.383 973.645 799.317 965.273 C 794.649 961.17 787.468 952.762 781.559 954.77 C 774.382 964.169 761.914 975.973 753.174 984.505 C 752.274 982.081 746.587 971.87 745.015 968.771 C 736.784 952.982 732.453 936.444 732.317 918.63 C 732.244 909.027 736.285 896.127 734.844 887.083 L 729.389 891.124 C 728.639 880.937 728.833 869.213 728.157 858.43 C 710.472 877.672 690.872 896.283 672.552 915.084 C 664.193 923.662 644.665 945.011 635.806 951.082 L 635.195 885.696 C 645.881 871.488 675.935 842.694 689.743 828.717 L 780.251 735.889 L 911.006 601.398 C 929.368 582.605 946.063 562.801 965.438 544.825 C 1007.43 505.863 1053.02 481.148 1108.93 468.032 C 1151.31 457.969 1195.43 457.702 1237.92 467.251 C 1246.64 469.13 1261.14 472.701 1268.68 477.383 L 1268.97 479.044 L 1272.1 481.29 C 1276.39 477.448 1288.05 463.587 1292.41 458.676 C 1304.14 445.359 1316.17 432.31 1328.5 419.539 C 1387.37 358.524 1446.03 307.524 1527.79 280.531 C 1548.64 273.649 1566.05 269.859 1587.23 264.423 z"></path>
  <path fill="url(#Gradient16)" d="M 635.195 885.696 C 645.881 871.488 675.935 842.694 689.743 828.717 L 780.251 735.889 L 911.006 601.398 C 929.368 582.605 946.063 562.801 965.438 544.825 C 1007.43 505.863 1053.02 481.148 1108.93 468.032 C 1151.31 457.969 1195.43 457.702 1237.92 467.251 C 1246.64 469.13 1261.14 472.701 1268.68 477.383 L 1268.97 479.044 L 1272.1 481.29 C 1259.2 494.782 1245.09 510.564 1232 523.461 L 1225.72 523.58 L 1223.95 525.265 C 1212.92 513.764 1153.46 514.293 1138.28 518.562 L 1138.91 520.633 C 1133.29 524.568 1126 527.604 1119.82 531.723 C 1106.35 540.712 1093.29 551.279 1081.29 562.186 C 1027.28 611.285 978.357 665.781 927.256 717.455 C 896.55 748.249 866.014 779.214 835.651 810.347 C 827.972 818.291 803.314 843.236 798.139 851.792 C 782.138 858.463 744.995 874.447 734.844 887.083 L 729.389 891.124 C 728.639 880.937 728.833 869.213 728.157 858.43 C 710.472 877.672 690.872 896.283 672.552 915.084 C 664.193 923.662 644.665 945.011 635.806 951.082 L 635.195 885.696 z"></path>
  <path fill="#732439" d="M 1138.28 518.562 L 1138.91 520.633 C 1133.29 524.568 1126 527.604 1119.82 531.723 C 1106.35 540.712 1093.29 551.279 1081.29 562.186 C 1027.28 611.285 978.357 665.781 927.256 717.455 C 896.55 748.249 866.014 779.214 835.651 810.347 C 827.972 818.291 803.314 843.236 798.139 851.792 C 782.138 858.463 744.995 874.447 734.844 887.083 L 729.389 891.124 C 728.639 880.937 728.833 869.213 728.157 858.43 C 736.55 848.928 753.934 833.069 763.622 823.357 L 832.224 753.219 C 869.528 714.917 907.945 676.176 944.884 637.633 C 1004.99 574.916 1049.26 533.702 1138.28 518.562 z"></path>
  <path fill="url(#Gradient15)" d="M 1268.97 479.044 L 1272.1 481.29 C 1259.2 494.782 1245.09 510.564 1232 523.461 L 1225.72 523.58 C 1239.17 507.864 1253.05 492.27 1268.97 479.044 z"></path>
  <path fill="#C33C35" d="M 1138.28 518.562 C 1153.46 514.293 1212.92 513.764 1223.95 525.265 C 1125.06 624.966 1029.34 731.365 927.035 828.167 C 920.149 834.682 907.96 846.94 902.995 854.512 C 865.676 838.947 836.585 842.254 798.139 851.792 C 803.314 843.236 827.972 818.291 835.651 810.347 C 866.014 779.214 896.55 748.249 927.256 717.455 C 978.357 665.781 1027.28 611.285 1081.29 562.186 C 1093.29 551.279 1106.35 540.712 1119.82 531.723 C 1126 527.604 1133.29 524.568 1138.91 520.633 L 1138.28 518.562 z"></path>
  <path fill="#DECCAA" d="M 798.139 851.792 C 836.585 842.254 865.676 838.947 902.995 854.512 L 904.459 855.863 C 895.959 866.778 883.343 878.814 873.641 888.864 C 849.616 913.749 821.518 939.013 799.317 965.273 C 794.649 961.17 787.468 952.762 781.559 954.77 C 774.382 964.169 761.914 975.973 753.174 984.505 C 752.274 982.081 746.587 971.87 745.015 968.771 C 736.784 952.982 732.453 936.444 732.317 918.63 C 732.244 909.027 736.285 896.127 734.844 887.083 C 744.995 874.447 782.138 858.463 798.139 851.792 z"></path>
  <path fill="#FCF8D3" d="M 1223.95 525.265 L 1225.72 523.58 L 1232 523.461 C 1210.95 544.272 1192.22 564.516 1171.76 585.526 L 1060.77 698.781 L 964.478 796.009 C 944.414 816.035 924.048 835.377 904.459 855.863 L 902.995 854.512 C 907.96 846.94 920.149 834.682 927.035 828.167 C 1029.34 731.365 1125.06 624.966 1223.95 525.265 z"></path>
  <path fill="#D4512F" d="M 1521.69 702.927 C 1527.94 719.7 1531.92 736.09 1535.36 753.604 C 1542.84 810.056 1537.27 856.92 1514.07 909.445 C 1493.58 955.81 1466.06 981.104 1431.81 1016.87 C 1403.48 1046.93 1374.78 1076.64 1345.73 1106.01 C 1275.28 1178.08 1206.64 1250.69 1135.33 1322.29 C 1098.6 1361.85 1054.75 1400.15 1017.87 1440.72 C 1018.53 1423.18 1019.36 1396.24 1021.86 1379.19 C 1021.98 1361.35 1025.84 1340.44 1026.02 1320.5 C 1030.51 1314.22 1037.27 1306.95 1042.36 1301.02 C 1064.63 1275.02 1086.65 1248.01 1101.89 1217.15 C 1107.1 1206.6 1111.09 1195.34 1116.39 1184.76 L 1118.64 1177.15 C 1123.3 1148.43 1121.49 1132.62 1112.45 1105.63 C 1170.38 1044.4 1233.89 986.508 1293.37 927.007 L 1409.06 812.659 C 1424.95 797.119 1447 773.548 1463.47 759.573 C 1468.6 755.495 1479.92 743.582 1484.97 738.558 C 1497.01 726.477 1509.25 714.599 1521.69 702.927 z"></path>
  <path fill="#911934" d="M 1521.69 702.927 C 1527.94 719.7 1531.92 736.09 1535.36 753.604 C 1542.84 810.056 1537.27 856.92 1514.07 909.445 C 1493.58 955.81 1466.06 981.104 1431.81 1016.87 C 1403.48 1046.93 1374.78 1076.64 1345.73 1106.01 C 1275.28 1178.08 1206.64 1250.69 1135.33 1322.29 C 1127.46 1316.55 1120.2 1310.03 1113.66 1302.83 C 1124.15 1287.35 1163.15 1249.85 1178.15 1234.53 L 1357.34 1052.79 C 1429.73 977.973 1472.82 947.485 1477.07 832.445 C 1477.9 828.244 1477.81 816.738 1477.85 812 C 1475.47 792.841 1471.05 777.313 1463.47 759.573 C 1468.6 755.495 1479.92 743.582 1484.97 738.558 C 1497.01 726.477 1509.25 714.599 1521.69 702.927 z"></path>
  <path fill="#732439" d="M 1521.69 702.927 C 1527.94 719.7 1531.92 736.09 1535.36 753.604 C 1518.71 770.297 1492.08 793.56 1477.85 812 C 1475.47 792.841 1471.05 777.313 1463.47 759.573 C 1468.6 755.495 1479.92 743.582 1484.97 738.558 C 1497.01 726.477 1509.25 714.599 1521.69 702.927 z"></path>
  <path fill="#814428" d="M 1112.45 1105.63 C 1170.38 1044.4 1233.89 986.508 1293.37 927.007 L 1409.06 812.659 C 1424.95 797.119 1447 773.548 1463.47 759.573 C 1471.05 777.313 1475.47 792.841 1477.85 812 C 1477.81 816.738 1477.9 828.244 1477.07 832.445 L 1476.65 816.353 C 1457.33 835.275 1439.31 854.673 1420.22 873.719 C 1362.41 930.953 1305.08 988.678 1248.26 1046.89 L 1177.34 1118.59 C 1161.55 1134.81 1135.46 1162.86 1118.64 1177.15 C 1123.3 1148.43 1121.49 1132.62 1112.45 1105.63 z"></path>
  <path fill="url(#Gradient14)" d="M 1026.02 1320.5 C 1030.51 1314.22 1037.27 1306.95 1042.36 1301.02 C 1064.63 1275.02 1086.65 1248.01 1101.89 1217.15 C 1107.1 1206.6 1111.09 1195.34 1116.39 1184.76 C 1118.88 1216.23 1063.49 1304.08 1047 1332.85 C 1040.75 1343.75 1028.87 1371.2 1021.86 1379.19 C 1021.98 1361.35 1025.84 1340.44 1026.02 1320.5 z"></path>
  <path fill="#0D6149" d="M 1657.37 338.166 L 1657.93 338.391 C 1669.04 350.506 1686.23 367.249 1698.71 378.196 L 1701.74 381.265 C 1712.13 390.168 1722.18 399.458 1731.88 409.117 C 1688.11 523.428 1615.74 624.593 1521.69 702.927 C 1509.25 714.599 1497.01 726.477 1484.97 738.558 C 1479.92 743.582 1468.6 755.495 1463.47 759.573 C 1447 773.548 1424.95 797.119 1409.06 812.659 L 1293.37 927.007 C 1233.89 986.508 1170.38 1044.4 1112.45 1105.63 C 1094.26 1125.1 1073.53 1143.73 1054.87 1162.83 C 1048.86 1168.99 1031.33 1184.7 1027.18 1190.62 C 1016.22 1178.86 1006.72 1169.65 995.044 1158.56 C 1008.83 1141.68 1038.09 1113.46 1053.7 1097.46 L 1155.01 993.526 C 1173.65 974.743 1190.55 955.779 1208.78 937.028 L 1369.41 774.203 L 1453.73 689.284 C 1457.54 685.391 1472.84 671.35 1474.6 667.663 C 1492.15 657.217 1489.17 653.5 1500.63 639.528 L 1501.47 638.519 C 1523.35 589.85 1513.54 554.396 1474.82 518.865 C 1482.23 514.583 1523.67 471.748 1532.38 463.241 C 1562.04 434.74 1591.45 405.968 1620.59 376.93 C 1629.27 368.246 1651.19 347.134 1657.37 338.166 z"></path>
  <path fill="url(#Gradient13)" d="M 1657.37 338.166 L 1657.93 338.391 C 1669.04 350.506 1686.23 367.249 1698.71 378.196 L 1701.74 381.265 C 1650.59 462.087 1592.76 534.529 1530.28 606.987 C 1526.77 611.056 1504.01 637.909 1501.47 638.519 C 1523.35 589.85 1513.54 554.396 1474.82 518.865 C 1482.23 514.583 1523.67 471.748 1532.38 463.241 C 1562.04 434.74 1591.45 405.968 1620.59 376.93 C 1629.27 368.246 1651.19 347.134 1657.37 338.166 z"></path>
  <path fill="url(#Gradient12)" d="M 1338.54 646.001 C 1346.82 654.144 1358.94 663.83 1369.1 669.335 C 1402.52 693.701 1441.52 689.186 1474.6 667.663 C 1472.84 671.35 1457.54 685.391 1453.73 689.284 L 1369.41 774.203 L 1208.78 937.028 C 1190.55 955.779 1173.65 974.743 1155.01 993.526 L 1053.7 1097.46 C 1038.09 1113.46 1008.83 1141.68 995.044 1158.56 C 975 1139.11 954.612 1120.02 933.889 1101.3 C 921.199 1088.77 908.685 1076.06 896.352 1063.17 C 901.868 1059 914.964 1044.87 920.402 1039.28 C 932.02 1027.39 943.781 1015.64 955.685 1004.04 C 989.459 971.143 1022.98 937.989 1056.24 904.576 C 1081.4 879.385 1097.7 864.387 1121.14 836.807 C 1120.88 837.976 1120.87 837.316 1121.55 838.745 C 1131.57 836.494 1145.72 834.576 1156.17 832.891 L 1164.9 831.135 L 1188 825.941 C 1197.63 824.024 1207.23 821.956 1216.79 819.739 C 1227.31 816.308 1234.43 813.27 1243.26 806.75 C 1257.79 796.236 1262.55 763.44 1266.52 745.791 C 1268.96 732.973 1272.5 717.17 1275.67 704.639 L 1275.29 703.969 L 1277.11 700.352 C 1284.94 696.943 1320.96 656.991 1333.56 648.731 L 1338.54 646.001 z"></path>
  <path fill="#9E8262" d="M 1156.17 832.891 L 1164.9 831.135 C 1170.37 837.35 1178.82 842.268 1185.4 847.645 L 1183.66 850.633 L 1177.39 856.248 L 1081.43 952.239 C 1064.37 969.12 938.766 1091.13 933.889 1101.3 C 921.199 1088.77 908.685 1076.06 896.352 1063.17 C 901.868 1059 914.964 1044.87 920.402 1039.28 C 932.02 1027.39 943.781 1015.64 955.685 1004.04 C 989.459 971.143 1022.98 937.989 1056.24 904.576 C 1081.4 879.385 1097.7 864.387 1121.14 836.807 C 1120.88 837.976 1120.87 837.316 1121.55 838.745 C 1131.57 836.494 1145.72 834.576 1156.17 832.891 z"></path>
  <path fill="#846E4E" d="M 1156.17 832.891 L 1164.9 831.135 C 1170.37 837.35 1178.82 842.268 1185.4 847.645 L 1183.66 850.633 L 1177.39 856.248 C 1170.64 848.234 1162.4 840.835 1156.17 832.891 z"></path>
  <path fill="#0B3E36" d="M 1266.52 745.791 C 1268.18 748.487 1267.87 746.834 1267.7 749.292 C 1266.75 763.405 1262.78 816.734 1269.05 826.949 C 1248.09 836.213 1206.73 849.064 1183.66 850.633 L 1185.4 847.645 C 1178.82 842.268 1170.37 837.35 1164.9 831.135 L 1188 825.941 C 1197.63 824.024 1207.23 821.956 1216.79 819.739 C 1227.31 816.308 1234.43 813.27 1243.26 806.75 C 1257.79 796.236 1262.55 763.44 1266.52 745.791 z"></path>
  <path fill="#474836" d="M 1188 825.941 C 1197.63 824.024 1207.23 821.956 1216.79 819.739 C 1209.5 829.872 1195.25 839.172 1185.4 847.645 C 1178.82 842.268 1170.37 837.35 1164.9 831.135 L 1188 825.941 z"></path>
  <path fill="#0C5851" d="M 1266.52 745.791 C 1268.96 732.973 1272.5 717.17 1275.67 704.639 L 1277.21 706.184 C 1276.49 722.847 1274.95 819.056 1270.06 826.333 L 1269.05 826.949 C 1262.78 816.734 1266.75 763.405 1267.7 749.292 C 1267.87 746.834 1268.18 748.487 1266.52 745.791 z"></path>
  <path fill="#0C5851" d="M 1277.11 700.352 C 1284.94 696.943 1320.96 656.991 1333.56 648.731 C 1327.76 658.39 1287.21 698.523 1277.21 706.184 L 1275.67 704.639 L 1275.29 703.969 L 1277.11 700.352 z"></path>
  <path fill="url(#Gradient11)" d="M 1314.49 557.843 C 1322.51 542.855 1322.75 534.582 1337.8 520.1 C 1359.09 499.617 1379.91 496.795 1407.94 496.963 C 1422.54 497.114 1438.79 498.833 1451.65 506.372 C 1460.73 509.934 1466.97 513.03 1474.82 518.865 C 1513.54 554.396 1523.35 589.85 1501.47 638.519 L 1500.63 639.528 C 1489.17 653.5 1492.15 657.217 1474.6 667.663 C 1441.52 689.186 1402.52 693.701 1369.1 669.335 C 1358.94 663.83 1346.82 654.144 1338.54 646.001 L 1336.69 643.519 C 1338.04 642.383 1340.78 640.702 1342.35 639.662 C 1321.16 621.118 1315.91 608.516 1311.99 581.679 C 1311.48 573.163 1312.93 566.139 1314.49 557.843 z"></path>
  <path fill="url(#Gradient10)" d="M 1388.38 510.473 C 1418.68 507.471 1447.34 522.387 1451.84 555.478 C 1454 571.354 1444.38 589.962 1434.31 601.266 C 1414.21 625.209 1369.14 637.383 1343.71 615.647 C 1338.71 611.369 1335.29 605.193 1332.21 599.245 C 1329 587.147 1327.89 574.896 1331.72 562.805 C 1333.93 548.972 1343.88 535.52 1354.37 526.57 L 1360.8 521.239 C 1373.37 516.488 1370.66 514.211 1388.38 510.473 z"></path>
  <path fill="#F9E7BC" d="M 1379.02 529.456 C 1385.19 531.769 1388.08 533.039 1392.77 537.751 C 1391.3 538.975 1385.96 543.411 1385.16 544.752 C 1377.74 557.316 1377.98 564.386 1362.46 569.619 C 1360.17 566.999 1358.47 564.118 1356.59 561.19 L 1357.11 560.244 C 1356.86 556.769 1356.82 553.282 1357 549.801 C 1357.42 542.158 1359.79 538.402 1365.27 533.475 C 1370.34 530.773 1372.7 529.991 1378.33 529.984 L 1379.02 529.456 z"></path>
  <path fill="#FCF8D3" d="M 1365.27 533.475 C 1370.34 530.773 1372.7 529.991 1378.33 529.984 C 1378.85 542.389 1371.44 555.344 1359.96 560.551 L 1357.11 560.244 C 1356.86 556.769 1356.82 553.282 1357 549.801 C 1357.42 542.158 1359.79 538.402 1365.27 533.475 z"></path>
  <path fill="#FCD07B" d="M1362.46 569.619C1377.98 564.386 1377.74 557.316 1385.16 544.752 1385.96 543.411 1391.3 538.975 1392.77 537.751 1396.43 543.741 1397.95 547.803 1396.18 555.041 1394.55 561.539 1390.29 567.068 1384.43 570.306 1377.72 574.03 1368.87 574.008 1362.46 569.619zM1360.8 521.239C1373.37 516.488 1370.66 514.211 1388.38 510.473 1393.31 511.397 1392.6 510.47 1395.4 513.434 1395.05 522.349 1383.2 524.542 1379.02 529.456L1378.33 529.984C1372.7 529.991 1370.34 530.773 1365.27 533.475 1358.43 533.123 1357.96 532.315 1354.37 526.57L1360.8 521.239z"></path>
  <path fill="#FEB646" d="M 1354.37 526.57 C 1357.96 532.315 1358.43 533.123 1365.27 533.475 C 1359.79 538.402 1357.42 542.158 1357 549.801 C 1356.82 553.282 1356.86 556.769 1357.11 560.244 L 1356.59 561.19 C 1352.56 556.859 1354.86 543.343 1357.63 538.389 L 1356.25 537.723 C 1348.56 540.814 1343.79 552.945 1336.23 557.101 C 1333.96 558.348 1334.35 560.807 1332.2 562.97 L 1331.72 562.805 C 1333.93 548.972 1343.88 535.52 1354.37 526.57 z"></path>
  <path fill="#0B3E36" d="M 1407.94 496.963 C 1422.54 497.114 1438.79 498.833 1451.65 506.372 C 1460.73 509.934 1466.97 513.03 1474.82 518.865 C 1513.54 554.396 1523.35 589.85 1501.47 638.519 L 1500.63 639.528 C 1489.17 653.5 1492.15 657.217 1474.6 667.663 C 1441.52 689.186 1402.52 693.701 1369.1 669.335 C 1358.94 663.83 1346.82 654.144 1338.54 646.001 L 1336.69 643.519 C 1338.04 642.383 1340.78 640.702 1342.35 639.662 L 1347.2 642.585 C 1353.81 649.39 1371.93 656.445 1381.23 658.156 C 1454.73 671.691 1510.71 593.831 1466.32 530.57 C 1454.48 513.694 1439.58 504.714 1419.3 501.044 C 1414.15 499.725 1412.72 499.263 1407.94 496.963 z"></path>
  <path fill="#0C5851" d="M 1451.65 506.372 C 1460.73 509.934 1466.97 513.03 1474.82 518.865 C 1513.54 554.396 1523.35 589.85 1501.47 638.519 L 1500.63 639.528 C 1489.17 653.5 1492.15 657.217 1474.6 667.663 C 1441.52 689.186 1402.52 693.701 1369.1 669.335 L 1369.55 669.216 C 1375.44 667.607 1389.56 671.627 1398 671.864 C 1418.7 672.444 1456.24 663.558 1471.22 649.204 C 1487.02 634.076 1498.09 608.826 1498.51 586.99 C 1498.95 564.365 1491.07 540.946 1473.94 525.637 C 1466.7 519.167 1459.26 514.632 1452.59 507.403 L 1451.65 506.372 z"></path>
  <path fill="#C33C35" d="M 1314.49 557.843 C 1322.51 542.855 1322.75 534.582 1337.8 520.1 C 1359.09 499.617 1379.91 496.795 1407.94 496.963 C 1412.72 499.263 1414.15 499.725 1419.3 501.044 C 1414.46 500.982 1408.81 500.859 1403.99 501.062 C 1381.13 502.027 1345.54 515.048 1335.19 537.104 C 1324.85 552.306 1317.28 571.641 1321.24 590.301 C 1321.56 600.272 1328.03 613.22 1334 621.192 C 1335.82 623.618 1339.58 628.073 1340.41 630.661 C 1334.59 626.77 1327.1 613.902 1324.28 607.518 C 1328.04 622.05 1329.58 624.065 1340.55 634.95 C 1342.97 637.352 1345.72 639.503 1347.2 642.585 L 1342.35 639.662 C 1321.16 621.118 1315.91 608.516 1311.99 581.679 C 1311.48 573.163 1312.93 566.139 1314.49 557.843 z"></path>
  <path fill="#F68932" d="M 1335.19 537.104 C 1345.26 528.821 1348.46 523.48 1360.8 521.239 L 1354.37 526.57 C 1343.88 535.52 1333.93 548.972 1331.72 562.805 C 1327.89 574.896 1329 587.147 1332.21 599.245 C 1323.69 588.22 1330.51 566.89 1325.24 561.871 C 1321.18 571.157 1322.88 579.284 1321.38 589.405 L 1321.24 590.301 C 1317.28 571.641 1324.85 552.306 1335.19 537.104 z"></path>
  <path fill="url(#Gradient9)" d="M 1142.55 793.007 C 1163.81 721.501 1169.49 719.071 1244.32 705.531 C 1254.67 703.658 1266.59 700.561 1277.11 700.352 L 1275.29 703.969 L 1275.67 704.639 C 1272.5 717.17 1268.96 732.973 1266.52 745.791 C 1262.55 763.44 1257.79 796.236 1243.26 806.75 C 1234.43 813.27 1227.31 816.308 1216.79 819.739 C 1207.23 821.956 1197.63 824.024 1188 825.941 L 1164.9 831.135 L 1156.17 832.891 C 1145.72 834.576 1131.57 836.494 1121.55 838.745 C 1120.87 837.316 1120.88 837.976 1121.14 836.807 C 1122.95 834.511 1123.77 832.975 1126.45 831.829 C 1133.31 820.317 1140.57 806.349 1142.55 793.007 z"></path>
  <path fill="#F9DCBC" d="M 1142.55 793.007 C 1163.81 721.501 1169.49 719.071 1244.32 705.531 C 1254.67 703.658 1266.59 700.561 1277.11 700.352 L 1275.29 703.969 C 1264.22 705.885 1203.77 766.566 1190.63 778.207 C 1181.8 786.042 1154.63 808.608 1146.86 816.621 C 1140.84 821.424 1133.9 828.926 1128.39 832.364 L 1126.45 831.829 C 1133.31 820.317 1140.57 806.349 1142.55 793.007 z"></path>
  <path fill="#A9B385" d="M 1146.86 816.621 C 1159.98 813.86 1166.69 813.463 1173.45 826.12 C 1177.78 827.564 1182.68 825.121 1187.96 824.77 L 1188 825.941 L 1164.9 831.135 L 1156.17 832.891 C 1145.72 834.576 1131.57 836.494 1121.55 838.745 C 1120.87 837.316 1120.88 837.976 1121.14 836.807 C 1122.95 834.511 1123.77 832.975 1126.45 831.829 L 1128.39 832.364 C 1133.9 828.926 1140.84 821.424 1146.86 816.621 z"></path>
  <path fill="#A9B385" d="M 1187.96 824.77 L 1189.04 823.053 C 1188.7 820.664 1188.83 820.497 1189.18 818.069 C 1191.01 815.669 1193.34 813.853 1196.64 812.85 C 1207.77 809.467 1229.55 798.546 1240.39 802.777 C 1242.77 803.702 1242.14 803.947 1243.26 806.75 C 1234.43 813.27 1227.31 816.308 1216.79 819.739 C 1207.23 821.956 1197.63 824.024 1188 825.941 L 1187.96 824.77 z"></path>
  <path fill="#F6A44E" d="M 884.202 1050.76 C 890.109 1045.85 900.778 1033.51 907.15 1027.6 C 928.861 1007.47 949.275 986.083 969.973 964.958 L 1057.97 876.696 C 1087.16 847.375 1112.27 821.356 1142.55 793.007 C 1140.57 806.349 1133.31 820.317 1126.45 831.829 C 1123.77 832.975 1122.95 834.511 1121.14 836.807 C 1097.7 864.387 1081.4 879.385 1056.24 904.576 C 1022.98 937.989 989.459 971.143 955.685 1004.04 C 943.781 1015.64 932.02 1027.39 920.402 1039.28 C 914.964 1044.87 901.868 1059 896.352 1063.17 L 894.686 1062.43 C 893.397 1060.58 886.645 1053.82 884.202 1050.76 z"></path>
  <path fill="#7CCCB0" d="M 1127.51 695.478 L 1130.16 695.32 C 1127.78 697.656 1115.27 709.771 1114.87 710.96 C 1106.61 735.624 1082.49 749.607 1064.45 767.036 C 1059.45 771.865 1045 785.097 1037.2 785.828 C 1040.6 781.822 1045.82 776.535 1049.72 772.887 C 1076.36 747.942 1101.32 720.776 1127.51 695.478 z"></path>
  <path fill="#0B3E36" d="M 1311.99 581.679 C 1315.91 608.516 1321.16 621.118 1342.35 639.662 C 1340.78 640.702 1338.04 642.383 1336.69 643.519 C 1321.9 627.899 1311.7 603.28 1311.99 581.679 z"></path>
  <path fill="url(#Gradient8)" d="M 802.802 1149.85 C 805.916 1153.74 806.226 1154.42 810.301 1157.05 C 817.778 1163.56 823.658 1169.84 830.468 1176.98 L 843.46 1190.15 C 845.815 1192.42 849.818 1196.6 852.367 1198.24 C 857.698 1202.91 860.946 1205.98 865.77 1211.15 C 820.097 1254.4 774.963 1301.46 729.194 1345 C 725.006 1348.98 711.928 1361.7 709.363 1366 C 709.769 1367.6 710.833 1371.34 711.041 1372.78 C 718.029 1407.68 710.328 1456.68 691.543 1486.56 C 669.694 1536.64 612.534 1579.72 568.838 1610.38 L 484.301 1668.82 L 259.423 1826.73 C 243.257 1838.07 212.778 1857.08 199.301 1868.49 C 219.431 1837.48 233.224 1805.8 250.517 1773.86 C 291.799 1697.63 327.74 1619.11 367.774 1542.32 C 393.621 1492.74 421.042 1432.35 458.685 1390.89 C 495.462 1350.39 538.998 1321.96 593.873 1313.16 C 609.43 1310.67 624.064 1310.27 639.734 1309.6 C 643.19 1306.99 646.482 1303.3 649.677 1300.26 C 669.409 1281.52 687.944 1261.5 707.351 1242.46 C 727.811 1222.65 748.395 1202.98 769.101 1183.43 C 779.586 1173.4 793.64 1160.66 802.802 1149.85 z"></path>
  <path fill="url(#Gradient7)" d="M 199.301 1868.49 C 219.431 1837.48 233.224 1805.8 250.517 1773.86 C 291.799 1697.63 327.74 1619.11 367.774 1542.32 C 393.621 1492.74 421.042 1432.35 458.685 1390.89 C 495.462 1350.39 538.998 1321.96 593.873 1313.16 C 609.43 1310.67 624.064 1310.27 639.734 1309.6 L 635.79 1314.12 C 629.342 1314.53 613.815 1328.97 606.159 1333.54 C 547.939 1377.58 512.886 1418.66 470.296 1477.75 C 467.1 1484.7 438.829 1522.86 432.26 1533.34 C 397.571 1588.65 367.047 1639.96 337.758 1698.49 C 355.875 1690.71 380.885 1675.82 398.271 1666.2 C 490.416 1615.23 581.143 1551.52 650.463 1471.56 C 662.056 1458.18 681.005 1435.54 688.33 1419.11 L 687.684 1417.22 C 688.283 1413.81 688.876 1414.15 691.591 1411.06 C 694.162 1409.44 708.072 1378.21 711.041 1372.78 C 718.029 1407.68 710.328 1456.68 691.543 1486.56 C 669.694 1536.64 612.534 1579.72 568.838 1610.38 L 484.301 1668.82 L 259.423 1826.73 C 243.257 1838.07 212.778 1857.08 199.301 1868.49 z"></path>
  <path fill="#FCD07B" d="M 470.296 1477.75 C 471 1466.97 488.163 1460.29 484.18 1448.37 C 481.828 1440.27 486.762 1430.16 489.602 1422.75 C 502.658 1388.7 536.09 1351.26 574.889 1349.67 C 574.902 1349.67 579.515 1351.61 579.946 1351.79 C 583.698 1350.01 600.218 1336.19 604.811 1332.91 L 606.159 1333.54 C 547.939 1377.58 512.886 1418.66 470.296 1477.75 z"></path>
  <path fill="#D4512F" d="M 711.041 1372.78 C 718.029 1407.68 710.328 1456.68 691.543 1486.56 C 690.204 1483.22 697.908 1470.45 699.183 1466.98 C 702.171 1458.85 704.66 1404.16 702.131 1398.75 C 699.563 1400.02 692.368 1414.44 688.33 1419.11 L 687.684 1417.22 C 688.283 1413.81 688.876 1414.15 691.591 1411.06 C 694.162 1409.44 708.072 1378.21 711.041 1372.78 z"></path>
  <path fill="#DECCAA" d="M 802.802 1149.85 C 805.916 1153.74 806.226 1154.42 810.301 1157.05 C 817.778 1163.56 823.658 1169.84 830.468 1176.98 L 843.46 1190.15 C 845.815 1192.42 849.818 1196.6 852.367 1198.24 C 857.698 1202.91 860.946 1205.98 865.77 1211.15 C 820.097 1254.4 774.963 1301.46 729.194 1345 C 725.006 1348.98 711.928 1361.7 709.363 1366 C 701.031 1375.53 676.145 1387.87 663.988 1393.58 C 655.728 1396.91 638.135 1399.32 629.209 1399.49 C 603.542 1382.74 620.054 1343.98 630.096 1323.2 L 635.79 1314.12 L 639.734 1309.6 C 643.19 1306.99 646.482 1303.3 649.677 1300.26 C 669.409 1281.52 687.944 1261.5 707.351 1242.46 C 727.811 1222.65 748.395 1202.98 769.101 1183.43 C 779.586 1173.4 793.64 1160.66 802.802 1149.85 z"></path>
  <path fill="#879684" d="M 843.46 1190.15 C 845.815 1192.42 849.818 1196.6 852.367 1198.24 C 857.698 1202.91 860.946 1205.98 865.77 1211.15 C 820.097 1254.4 774.963 1301.46 729.194 1345 C 725.006 1348.98 711.928 1361.7 709.363 1366 C 701.031 1375.53 676.145 1387.87 663.988 1393.58 C 655.728 1396.91 638.135 1399.32 629.209 1399.49 C 632.963 1393.59 655.173 1372.26 660.942 1367.05 C 673.604 1360.36 706.543 1325.5 718.379 1313.6 L 797.585 1233.79 C 812.88 1218.39 828.055 1205.11 843.46 1190.15 z"></path>
  <path fill="#BDBDB8" d="M 830.468 1176.98 L 843.46 1190.15 C 828.055 1205.11 812.88 1218.39 797.585 1233.79 L 718.379 1313.6 C 706.543 1325.5 673.604 1360.36 660.942 1367.05 L 659 1365.96 C 651.388 1360.02 636.198 1349.98 636.923 1338.45 C 636.992 1337.36 637.531 1329.87 638.003 1329.25 C 643.82 1321.62 651.482 1314.83 658.385 1308.1 L 659.384 1308.72 C 643.129 1330.48 626.67 1332.22 649.593 1357.49 C 661.811 1341.93 682.244 1325 696.058 1310.7 C 700.059 1306.55 705.804 1303.02 709.918 1298.9 C 716.474 1292.34 722.064 1285.12 728.805 1278.69 C 750.205 1258.38 771.254 1237.7 791.944 1216.66 C 804.651 1203.94 818.772 1190.37 830.468 1176.98 z"></path>
  <path fill="#879684" d="M 802.802 1149.85 C 805.916 1153.74 806.226 1154.42 810.301 1157.05 C 781.629 1182.6 754.571 1211.79 725.537 1237.57 C 709.521 1251.79 692.148 1271.55 676.665 1286.99 C 664.198 1295.81 642.944 1321.33 630.096 1323.2 L 635.79 1314.12 L 639.734 1309.6 C 643.19 1306.99 646.482 1303.3 649.677 1300.26 C 669.409 1281.52 687.944 1261.5 707.351 1242.46 C 727.811 1222.65 748.395 1202.98 769.101 1183.43 C 779.586 1173.4 793.64 1160.66 802.802 1149.85 z"></path>
  <path fill="#7CCCB0" d="M 630.096 1323.2 C 642.944 1321.33 664.198 1295.81 676.665 1286.99 C 662.655 1305.81 647.504 1312.62 633.491 1330.05 C 633.727 1339.31 628.94 1347.59 622.218 1353.89 C 620.534 1352.57 621.187 1353.43 620.43 1351.17 C 615.565 1368.17 614.867 1383.55 628.59 1396.89 C 637.393 1387.27 649.455 1374.68 659 1365.96 L 660.942 1367.05 C 655.173 1372.26 632.963 1393.59 629.209 1399.49 C 603.542 1382.74 620.054 1343.98 630.096 1323.2 z"></path>
  <path fill="#C33C35" d="M 709.363 1366 C 709.769 1367.6 710.833 1371.34 711.041 1372.78 C 708.072 1378.21 694.162 1409.44 691.591 1411.06 C 692.721 1402.98 704.212 1392.06 699.759 1381.73 C 690.264 1375.76 675.423 1394.67 663.988 1393.58 C 676.145 1387.87 701.031 1375.53 709.363 1366 z"></path>
  <path fill="url(#Gradient6)" d="M 1043.66 1557.8 C 1029.76 1552.76 1015.18 1548.57 1001.05 1544.03 L 1000.74 1542.92 C 1011.88 1544.66 1031.57 1552.06 1042.41 1556.04 L 1043.12 1557.58 C 1040.27 1561.24 1033.45 1562.64 1028.86 1563.98 C 1027.74 1567.4 1027.59 1568.64 1027.1 1572.09 L 1028.5 1573.77 C 1030.48 1573.63 1030.09 1573.69 1032.08 1574.03 C 1031.17 1583.47 1030.84 1585.26 1038.18 1591.25 L 1039.21 1592.11 C 1039.69 1590.7 1039.34 1591.44 1040.39 1589.94 C 1054.34 1604.06 1069.98 1614.43 1084.38 1628.58 C 1104.75 1648.8 1136.48 1664.05 1155.62 1684.39 C 1180.69 1711.03 1201.24 1710 1232.42 1722.09 L 1232.88 1722.81 L 1048.47 1794.06 C 1019.47 1805.04 984.839 1816.49 956.709 1828.11 C 951.759 1820.28 945.72 1811.25 941.144 1803.34 C 879.866 1817.05 809.236 1831.15 749.271 1848.57 C 744.003 1849.74 735.538 1852.47 730.099 1854.03 C 739.247 1847.03 748.495 1840.17 757.839 1833.44 C 760.149 1831.16 771.667 1822.68 774.602 1820.47 C 791.875 1807.59 809.5 1795.19 827.457 1783.28 C 780.722 1793.75 732.28 1801.64 684.985 1809.83 C 622.4 1820.84 559.708 1831.24 496.918 1841.02 L 371.201 1859.3 L 253.344 1876.87 C 245.834 1877.99 210.912 1883.79 206.12 1883.62 C 210.079 1881.17 234.884 1874.02 240.79 1872.13 L 302.138 1852.21 C 324.878 1845.01 347.315 1836.59 370.016 1829.1 C 410.142 1815.94 450.496 1803.48 491.061 1791.73 C 515.522 1784.49 540.074 1777.55 564.71 1770.92 C 589.617 1764.35 621.856 1756.24 645.96 1748.17 C 663.927 1742.16 692.001 1727.5 710.753 1719.88 C 761.593 1699.21 813.976 1675.43 865.971 1657.73 C 854.817 1656.25 823.97 1650.01 813.538 1646.91 L 813.447 1645.36 C 820.833 1641.27 854.035 1629.4 864.213 1625.1 C 892.909 1613 924.152 1601.92 953.412 1590.69 C 981.266 1580 1015.23 1565.48 1043.66 1557.8 z"></path>
  <path fill="#41A163" d="M 757.839 1833.44 L 758.294 1835.29 C 753.822 1839.66 750.278 1840.05 747.751 1844.58 C 748.031 1847.45 747.57 1846.16 749.271 1848.57 C 744.003 1849.74 735.538 1852.47 730.099 1854.03 C 739.247 1847.03 748.495 1840.17 757.839 1833.44 z"></path>
  <path fill="#FEB646" d="M 607.864 1102.99 C 598.141 1100.39 586.682 1092.73 579.998 1085.15 C 570.717 1074.72 566.09 1060.95 567.185 1047.02 C 570.099 1010.97 600.138 995.17 633.007 997.983 C 670.904 1006.22 682.488 1026.37 694.85 1059.83 L 704.018 1059.78 L 705.221 1060.21 L 713.5 1057.93 L 714.485 1059.39 C 722.714 1065.81 737.408 1082.42 744.842 1090.58 L 755.184 1101.39 L 760.428 1106.94 C 758.841 1117.22 757.416 1126.12 755.076 1136.29 C 753.35 1143.78 750.255 1152.59 748.752 1159.72 C 749.545 1162.52 750.712 1164.66 748.976 1167.43 C 730.564 1196.79 700.191 1211.41 670.982 1226.81 C 647.311 1239.44 623.44 1251.7 599.378 1263.57 C 574.102 1276.26 546.347 1292.01 521.301 1303.74 C 516.269 1307.19 510.917 1309.63 505.452 1312.35 C 509.904 1299.68 516.844 1285.46 523.534 1273.84 C 538.227 1243.5 551.959 1212.63 566.7 1182.54 C 580.089 1155.85 593.812 1129.34 607.864 1102.99 z"></path>
  <path fill="#D4512F" d="M 714.485 1059.39 C 722.714 1065.81 737.408 1082.42 744.842 1090.58 L 755.184 1101.39 L 760.428 1106.94 C 758.841 1117.22 757.416 1126.12 755.076 1136.29 C 753.35 1143.78 750.255 1152.59 748.752 1159.72 C 749.545 1162.52 750.712 1164.66 748.976 1167.43 C 730.564 1196.79 700.191 1211.41 670.982 1226.81 C 647.311 1239.44 623.44 1251.7 599.378 1263.57 C 574.102 1276.26 546.347 1292.01 521.301 1303.74 C 523.386 1297.9 652.987 1183.92 667.105 1168.72 C 670.157 1161.65 691.264 1144.25 697.618 1136.35 C 690.509 1129.76 667.037 1106.26 663.433 1098.16 C 666.311 1085.91 705.402 1066.96 714.485 1059.39 z"></path>
  <path fill="#F6A44E" d="M 714.485 1059.39 C 722.714 1065.81 737.408 1082.42 744.842 1090.58 C 730.695 1103.76 711.109 1122.65 699.235 1137.89 C 692.452 1144.89 674.503 1163.26 667.105 1168.72 C 670.157 1161.65 691.264 1144.25 697.618 1136.35 C 690.509 1129.76 667.037 1106.26 663.433 1098.16 C 666.311 1085.91 705.402 1066.96 714.485 1059.39 z"></path>
  <path fill="#814428" d="M 744.842 1090.58 L 755.184 1101.39 C 745.556 1108.34 708.113 1138.62 699.235 1137.89 C 711.109 1122.65 730.695 1103.76 744.842 1090.58 z"></path>
  <path fill="#911934" d="M 716.34 1165.51 C 716.414 1162.37 718.517 1161.01 718.322 1156.52 C 715.268 1153.92 715.244 1153.93 716.1 1150.41 C 725.421 1143.22 719.71 1134.63 728.671 1131.67 C 731.861 1132.56 732.8 1132.59 735.302 1134.84 L 737.169 1135.3 C 736.273 1138.63 735.827 1140.51 735.301 1143.91 C 736.793 1144.64 736.088 1144.53 737.353 1144.52 C 738.663 1151.22 741.705 1153.46 746.406 1158.62 C 740.805 1161.04 737.124 1163.74 731.194 1160.85 L 729.598 1162.67 C 726.415 1159.5 727.288 1159.34 723.7 1158.76 C 720.466 1160.89 718.54 1167.4 717.23 1171.23 L 716.34 1165.51 z"></path>
  <path fill="#EC7933" d="M 735.302 1134.84 L 737.169 1135.3 C 736.273 1138.63 735.827 1140.51 735.301 1143.91 C 736.793 1144.64 736.088 1144.53 737.353 1144.52 C 738.663 1151.22 741.705 1153.46 746.406 1158.62 C 740.805 1161.04 737.124 1163.74 731.194 1160.85 C 732.404 1156.98 732.624 1156.72 732.09 1152.81 C 730.61 1149.83 729.152 1149.32 726.31 1147.54 L 725.232 1146.88 L 725.493 1145.11 L 726.444 1144.84 C 728.96 1145.92 730.715 1147.01 733.409 1146.82 C 733.889 1141.8 734.031 1139.64 735.302 1134.84 z"></path>
  <path fill="#F68932" d="M 737.353 1144.52 C 737.949 1132.81 750.852 1113.53 760.428 1106.94 C 758.841 1117.22 757.416 1126.12 755.076 1136.29 C 753.35 1143.78 750.255 1152.59 748.752 1159.72 L 746.406 1158.62 C 741.705 1153.46 738.663 1151.22 737.353 1144.52 z"></path>
  <path fill="#814428" d="M 701.716 1196.01 C 706.421 1185.93 711.173 1175.31 716.34 1165.51 L 717.23 1171.23 L 719.236 1171.55 L 721.052 1170.76 C 720.15 1172.87 720.387 1173.59 720.29 1175.85 C 717.298 1184.59 708.922 1190.08 701.716 1196.01 z"></path>
  <path fill="#C33C35" d="M 717.23 1171.23 C 718.54 1167.4 720.466 1160.89 723.7 1158.76 C 727.288 1159.34 726.415 1159.5 729.598 1162.67 L 728.313 1165.02 C 730.542 1169.7 730.975 1176.54 725.097 1178.46 C 722.412 1177.38 722.757 1177.46 720.29 1175.85 C 720.387 1173.59 720.15 1172.87 721.052 1170.76 L 719.236 1171.55 L 717.23 1171.23 z"></path>
  <path fill="#FCF8D3" d="M 607.864 1102.99 C 598.141 1100.39 586.682 1092.73 579.998 1085.15 C 570.717 1074.72 566.09 1060.95 567.185 1047.02 C 570.099 1010.97 600.138 995.17 633.007 997.983 C 670.904 1006.22 682.488 1026.37 694.85 1059.83 L 704.018 1059.78 L 705.221 1060.21 C 698.473 1063.65 690.955 1067.71 683.996 1070.48 C 670.188 1070.87 646.988 1078.23 632.807 1070.45 C 623.846 1076.81 613.749 1093.67 607.864 1102.99 z"></path>
  <path fill="#FCD07B" d="M 694.85 1059.83 L 704.018 1059.78 L 705.221 1060.21 C 698.473 1063.65 690.955 1067.71 683.996 1070.48 C 670.188 1070.87 646.988 1078.23 632.807 1070.45 C 653.397 1066.4 674.085 1062.86 694.85 1059.83 z"></path>
  <path fill="#F6A44E" d="M 713.5 1057.93 L 714.485 1059.39 C 705.402 1066.96 666.311 1085.91 663.433 1098.16 L 660.106 1097.31 C 650.542 1103.02 606.362 1163.72 596.433 1176.5 C 592.341 1182.12 588.022 1188.3 583.756 1193.73 C 576.429 1208.3 537.903 1253.98 526.545 1272.69 C 526.348 1273.01 524.136 1273.74 523.534 1273.84 C 538.227 1243.5 551.959 1212.63 566.7 1182.54 C 580.089 1155.85 593.812 1129.34 607.864 1102.99 C 613.749 1093.67 623.846 1076.81 632.807 1070.45 C 646.988 1078.23 670.188 1070.87 683.996 1070.48 C 690.955 1067.71 698.473 1063.65 705.221 1060.21 L 713.5 1057.93 z"></path>
  <path fill="url(#Gradient5)" d="M 713.5 1057.93 L 714.485 1059.39 C 705.402 1066.96 666.311 1085.91 663.433 1098.16 L 660.106 1097.31 C 650.542 1103.02 606.362 1163.72 596.433 1176.5 L 595.654 1174.62 C 604.465 1163.04 612.888 1151.17 620.91 1139.04 C 629.59 1125.72 638.121 1111.47 647.65 1098.77 C 656.811 1086.57 671.33 1078.86 683.996 1070.48 C 690.955 1067.71 698.473 1063.65 705.221 1060.21 L 713.5 1057.93 z"></path>
  <path fill="#EC7933" d="M 583.756 1193.73 C 583.229 1188.13 592.092 1178.83 595.654 1174.62 L 596.433 1176.5 C 592.341 1182.12 588.022 1188.3 583.756 1193.73 z"></path>
  <path fill="url(#Gradient4)" d="M 800.475 1301.12 C 799.795 1300.35 800.22 1300.94 799.841 1299.04 C 802.626 1290.44 804.958 1279.95 810.974 1273.28 C 822.703 1260.29 841.243 1262.66 856.791 1260.64 C 864.869 1259.58 870.109 1258.43 878.432 1257.81 L 879.266 1245.24 C 885.308 1246.62 890.433 1246.49 896.61 1246.66 C 899.048 1249.06 901.897 1251.51 903.714 1254.3 L 906.445 1258.67 C 914.757 1267 923.398 1275.47 931.549 1283.92 C 935.065 1287.4 939.011 1291.75 943.125 1294.31 L 943.444 1294.95 C 946.166 1296.55 946.233 1296.32 947.714 1299.04 C 947.834 1305.09 946.144 1309.26 948.778 1312.05 C 948.531 1314.58 948.674 1315.83 947.386 1317.98 C 948.554 1327.87 948.689 1330.05 947.794 1340.17 C 947.62 1347.79 946.285 1352.48 946.556 1360.68 C 944.48 1361.53 945.595 1361.12 943.201 1361.87 C 941.984 1367.55 944.205 1373.27 943.09 1375.89 C 937.611 1388.8 914.03 1406.39 902.83 1413.14 C 863.216 1437.01 821.426 1459.33 780.582 1480.98 C 756.413 1493.8 727.288 1512.08 703.211 1523.38 C 701.359 1524.87 700.212 1525.63 698.096 1525.1 C 696.825 1519.96 706.887 1501.68 709.746 1496.31 C 714.373 1486.31 726.631 1463.59 732.58 1454.64 C 748.684 1420.22 764.385 1385.61 779.679 1350.82 C 785.177 1338.3 796.759 1313.56 800.475 1301.12 z"></path>
  <path fill="#D4512F" d="M 943.444 1294.95 C 946.166 1296.55 946.233 1296.32 947.714 1299.04 C 947.834 1305.09 946.144 1309.26 948.778 1312.05 C 948.531 1314.58 948.674 1315.83 947.386 1317.98 C 948.554 1327.87 948.689 1330.05 947.794 1340.17 C 947.62 1347.79 946.285 1352.48 946.556 1360.68 C 944.48 1361.53 945.595 1361.12 943.201 1361.87 C 941.984 1367.55 944.205 1373.27 943.09 1375.89 C 937.611 1388.8 914.03 1406.39 902.83 1413.14 C 863.216 1437.01 821.426 1459.33 780.582 1480.98 C 756.413 1493.8 727.288 1512.08 703.211 1523.38 C 701.359 1524.87 700.212 1525.63 698.096 1525.1 C 696.825 1519.96 706.887 1501.68 709.746 1496.31 L 710.967 1495.26 C 712.78 1493.67 713.392 1492.82 714.878 1490.94 C 716.721 1490.22 718.501 1489.29 720.387 1489.15 C 722.574 1490.59 722.552 1491.66 723.423 1494.22 C 726.099 1495.85 728.307 1496.17 731.458 1495.31 C 773.235 1457.57 817.598 1419.51 858.284 1380.92 C 863.926 1375.86 869.827 1370.77 874.921 1365.17 C 877.596 1363.67 893.64 1348.27 896.953 1345.12 C 911.65 1331.13 924.857 1318.14 940.688 1305.34 L 937.037 1301.22 C 940.308 1298.61 940.932 1298.2 943.444 1294.95 z"></path>
  <path fill="#F6A44E" d="M 709.746 1496.31 L 710.967 1495.26 C 712.78 1493.67 713.392 1492.82 714.878 1490.94 C 716.721 1490.22 718.501 1489.29 720.387 1489.15 C 722.574 1490.59 722.552 1491.66 723.423 1494.22 C 726.099 1495.85 728.307 1496.17 731.458 1495.31 C 727.271 1499.43 704.739 1520.62 703.211 1523.38 C 701.359 1524.87 700.212 1525.63 698.096 1525.1 C 696.825 1519.96 706.887 1501.68 709.746 1496.31 z"></path>
  <path fill="#911934" d="M 939.617 1319.25 C 942.457 1316.54 945.18 1313.38 948.778 1312.05 C 948.531 1314.58 948.674 1315.83 947.386 1317.98 C 948.554 1327.87 948.689 1330.05 947.794 1340.17 L 947.189 1340.81 C 944.608 1343.57 942.563 1347.53 939.833 1349.31 C 941.406 1346.21 945.723 1338.34 946.304 1335.39 L 945.543 1334.63 C 936.663 1340.32 935.743 1347.31 927.927 1345.61 L 924.098 1342.24 C 923.74 1336.25 930.57 1329.74 934.577 1325.05 L 939.617 1319.25 z"></path>
  <path fill="#814428" d="M 939.617 1319.25 L 943.9 1321.58 C 940.914 1324.95 940.247 1325.6 936.697 1328.32 C 933.476 1332.4 928.127 1339.73 924.098 1342.24 C 923.74 1336.25 930.57 1329.74 934.577 1325.05 L 939.617 1319.25 z"></path>
  <path fill="#F6A44E" d="M943.444 1294.95C946.166 1296.55 946.233 1296.32 947.714 1299.04 946.457 1300.18 941.8 1304.56 940.688 1305.34L937.037 1301.22C940.308 1298.61 940.932 1298.2 943.444 1294.95zM800.475 1301.12C799.795 1300.35 800.22 1300.94 799.841 1299.04 802.626 1290.44 804.958 1279.95 810.974 1273.28 822.703 1260.29 841.243 1262.66 856.791 1260.64 864.869 1259.58 870.109 1258.43 878.432 1257.81L879.266 1245.24C885.308 1246.62 890.433 1246.49 896.61 1246.66 899.048 1249.06 901.897 1251.51 903.714 1254.3 897.082 1254.58 895.616 1257.24 891.09 1257.83 861.017 1295.82 829.013 1331.92 801.192 1371.82 796.537 1378.5 789.985 1387.72 784.746 1393.91 782.74 1399.3 744.732 1448.66 738.21 1454.73 737.392 1451.92 737.401 1451.81 737.262 1448.87L733.815 1455.12 732.58 1454.64C748.684 1420.22 764.385 1385.61 779.679 1350.82 785.177 1338.3 796.759 1313.56 800.475 1301.12z"></path>
  <path fill="#D4512F" d="M 891.09 1257.83 C 861.017 1295.82 829.013 1331.92 801.192 1371.82 C 796.537 1378.5 789.985 1387.72 784.746 1393.91 C 787.823 1386.24 802.367 1367.52 807.396 1359.97 C 822.075 1337.93 835.343 1316.56 852.913 1296.62 C 863.445 1284.66 877.599 1271.55 886.505 1258.68 L 891.09 1257.83 z"></path>
  <path fill="#FCD07B" d="M 800.475 1301.12 C 799.795 1300.35 800.22 1300.94 799.841 1299.04 C 802.626 1290.44 804.958 1279.95 810.974 1273.28 C 822.703 1260.29 841.243 1262.66 856.791 1260.64 C 864.869 1259.58 870.109 1258.43 878.432 1257.81 L 879.266 1245.24 C 885.308 1246.62 890.433 1246.49 896.61 1246.66 C 899.048 1249.06 901.897 1251.51 903.714 1254.3 C 897.082 1254.58 895.616 1257.24 891.09 1257.83 L 886.505 1258.68 C 876.628 1259.97 866.732 1261.11 856.82 1262.1 C 841.68 1263.64 820.46 1263.52 810.803 1276.57 C 805.898 1283.2 804.142 1294.36 800.475 1301.12 z"></path>
  <path fill="#D4512F" d="M 906.445 1258.67 C 914.757 1267 923.398 1275.47 931.549 1283.92 C 935.065 1287.4 939.011 1291.75 943.125 1294.31 L 943.444 1294.95 C 940.932 1298.2 940.308 1298.61 937.037 1301.22 C 928.42 1308.33 899.28 1333.92 891.356 1335.52 L 889.558 1334.8 C 889.354 1333.02 889.095 1332.66 889.458 1331.03 C 895.795 1306.35 901.642 1283.66 906.445 1258.67 z"></path>
  <path fill="#C33C35" d="M 889.458 1331.03 C 905.102 1320.75 919.211 1296.21 931.549 1283.92 C 935.065 1287.4 939.011 1291.75 943.125 1294.31 L 943.444 1294.95 C 940.932 1298.2 940.308 1298.61 937.037 1301.22 C 928.42 1308.33 899.28 1333.92 891.356 1335.52 L 889.558 1334.8 C 889.354 1333.02 889.095 1332.66 889.458 1331.03 z"></path>
  <path fill="#FEB646" d="M 858.284 1380.92 C 858.597 1372.54 867.751 1367.91 874.921 1365.17 C 869.827 1370.77 863.926 1375.86 858.284 1380.92 z"></path>
  <path fill="#0C5851" d="M 894.686 1062.43 L 896.352 1063.17 C 908.685 1076.06 921.199 1088.77 933.889 1101.3 C 954.612 1120.02 975 1139.11 995.044 1158.56 C 1006.72 1169.65 1016.22 1178.86 1027.18 1190.62 L 1024.2 1196.03 L 1030 1201.58 C 1013.71 1217.53 997.513 1233.57 981.399 1249.69 C 973.803 1257.34 953.426 1278.61 945.244 1284.19 C 944.799 1287.1 944.311 1291.85 943.125 1294.31 C 939.011 1291.75 935.065 1287.4 931.549 1283.92 C 923.398 1275.47 914.757 1267 906.445 1258.67 L 903.714 1254.3 C 901.897 1251.51 899.048 1249.06 896.61 1246.66 C 890.433 1246.49 885.308 1246.62 879.266 1245.24 C 884.64 1244.89 889.104 1244.94 894.195 1243.21 C 897.8 1237.54 874.127 1228.15 872.413 1217.82 C 871.517 1216.64 867.071 1212.43 865.77 1211.15 C 860.946 1205.98 857.698 1202.91 852.367 1198.24 C 849.818 1196.6 845.815 1192.42 843.46 1190.15 L 830.468 1176.98 C 823.658 1169.84 817.778 1163.56 810.301 1157.05 C 806.226 1154.42 805.916 1153.74 802.802 1149.85 L 802.806 1148.6 C 818.59 1133.6 877.744 1069.68 891.221 1064.22 L 893.055 1065.36 C 893.474 1064.2 894.024 1063.5 894.686 1062.43 z"></path>
  <path fill="url(#Gradient3)" d="M 891.221 1064.22 L 893.055 1065.36 C 904.477 1078.43 925.667 1100.6 938.365 1112.39 C 910.076 1141.57 880.713 1168.5 852.367 1198.24 C 849.818 1196.6 845.815 1192.42 843.46 1190.15 L 830.468 1176.98 C 823.658 1169.84 817.778 1163.56 810.301 1157.05 C 806.226 1154.42 805.916 1153.74 802.802 1149.85 L 802.806 1148.6 C 818.59 1133.6 877.744 1069.68 891.221 1064.22 z"></path>
  <path fill="url(#Gradient2)" d="M 894.686 1062.43 L 896.352 1063.17 C 908.685 1076.06 921.199 1088.77 933.889 1101.3 C 954.612 1120.02 975 1139.11 995.044 1158.56 C 1006.72 1169.65 1016.22 1178.86 1027.18 1190.62 L 1024.2 1196.03 C 998.029 1172.37 962.57 1137.34 938.365 1112.39 C 925.667 1100.6 904.477 1078.43 893.055 1065.36 C 893.474 1064.2 894.024 1063.5 894.686 1062.43 z"></path>
  <path fill="#F9DCBC" d="M 879.266 1245.24 C 884.64 1244.89 889.104 1244.94 894.195 1243.21 C 897.8 1237.54 874.127 1228.15 872.413 1217.82 C 890.454 1233.76 907.674 1251.37 925.976 1267.18 C 931.844 1272.25 939.091 1280.07 945.244 1284.19 C 944.799 1287.1 944.311 1291.85 943.125 1294.31 C 939.011 1291.75 935.065 1287.4 931.549 1283.92 C 923.398 1275.47 914.757 1267 906.445 1258.67 L 903.714 1254.3 C 901.897 1251.51 899.048 1249.06 896.61 1246.66 C 890.433 1246.49 885.308 1246.62 879.266 1245.24 z"></path>
  <path fill="#F6A44E" d="M 1593.07 264.373 C 1596.35 261.937 1607.38 256.851 1611.37 255.102 C 1655.15 235.883 1704.75 224.668 1752.56 223.636 C 1759.2 223.492 1772.24 223.238 1777.88 225.378 C 1777.77 226.555 1777.61 229.225 1777.31 230.221 C 1775.86 272.789 1748.82 369.61 1731.88 409.117 C 1722.18 399.458 1712.13 390.168 1701.74 381.265 L 1698.71 378.196 C 1686.23 367.249 1669.04 350.506 1657.93 338.391 L 1657.37 338.166 C 1646.33 326.171 1633.4 311.758 1623.2 299.242 C 1617.52 292.633 1611.79 286.058 1606.03 279.518 L 1593.07 264.373 z"></path>
  <path fill="#D4512F" d="M 1777.88 225.378 C 1777.77 226.555 1777.61 229.225 1777.31 230.221 C 1775.86 272.789 1748.82 369.61 1731.88 409.117 C 1722.18 399.458 1712.13 390.168 1701.74 381.265 L 1698.71 378.196 C 1686.23 367.249 1669.04 350.506 1657.93 338.391 C 1685.83 312.888 1712.46 283.846 1740.33 258.074 C 1749.54 249.561 1767.73 231.283 1777.88 225.378 z"></path>
  <path fill="#C33C35" d="M 1698.71 378.196 C 1708.57 370.873 1747.61 297.302 1754.53 281.328 C 1759.64 269.532 1767.57 248.919 1772.96 236.233 C 1774.04 233.693 1774.95 231.475 1777.31 230.221 C 1775.86 272.789 1748.82 369.61 1731.88 409.117 C 1722.18 399.458 1712.13 390.168 1701.74 381.265 L 1698.71 378.196 z"></path>
  <path fill="#F9DCBC" d="M 1606.03 279.518 C 1618.27 269.677 1646.82 258.157 1662.29 254.278 L 1662.24 254.72 C 1656.08 257.164 1637.67 262.76 1634.84 266.727 C 1639.32 272.704 1639.99 271.571 1638.58 278.79 C 1643.07 277.72 1643.42 274.086 1648.48 273.149 C 1653.95 272.136 1658.92 264.127 1664.04 262.457 L 1664.07 263.444 C 1654.23 273.095 1645.88 279.406 1635.12 287.944 C 1629.37 292.504 1631.66 294.153 1623.2 299.242 C 1617.52 292.633 1611.79 286.058 1606.03 279.518 z"></path>
  <path fill="url(#Gradient1)" d="M 781.559 954.77 C 787.468 952.762 794.649 961.17 799.317 965.273 C 808.383 973.645 820.211 984.898 828.458 994.064 C 843.835 1012.16 866.889 1033.91 884.202 1050.76 C 886.645 1053.82 893.397 1060.58 894.686 1062.43 C 894.024 1063.5 893.474 1064.2 893.055 1065.36 L 891.221 1064.22 C 877.744 1069.68 818.59 1133.6 802.806 1148.6 L 793.856 1139.6 C 782.933 1128.59 771.971 1117.28 760.428 1106.94 L 755.184 1101.39 L 744.842 1090.58 C 737.408 1082.42 722.714 1065.81 714.485 1059.39 L 713.5 1057.93 L 698.242 1042.37 C 704.903 1037.37 744.984 993.212 753.174 984.505 C 761.914 975.973 774.382 964.169 781.559 954.77 z"></path>
  <path fill="#0C5851" d="M 879.505 1053.83 C 884.539 1059.65 883.543 1062.38 891.221 1064.22 C 877.744 1069.68 818.59 1133.6 802.806 1148.6 L 793.856 1139.6 C 820.781 1111.02 851.706 1082.44 879.505 1053.83 z"></path>
  <path fill="#FEF6F9" d="M 781.559 954.77 C 787.468 952.762 794.649 961.17 799.317 965.273 C 808.383 973.645 820.211 984.898 828.458 994.064 C 843.835 1012.16 866.889 1033.91 884.202 1050.76 C 886.645 1053.82 893.397 1060.58 894.686 1062.43 C 894.024 1063.5 893.474 1064.2 893.055 1065.36 L 891.221 1064.22 C 883.543 1062.38 884.539 1059.65 879.505 1053.83 C 856.51 1031.68 834.381 1010.14 812.675 986.648 C 804.887 978.221 787.421 963.628 781.559 954.77 z"></path>
  <path fill="#F9E7BC" d="M 728.157 858.43 C 728.833 869.213 728.639 880.937 729.389 891.124 L 734.844 887.083 C 736.285 896.127 732.244 909.027 732.317 918.63 C 732.453 936.444 736.784 952.982 745.015 968.771 C 746.587 971.87 752.274 982.081 753.174 984.505 C 744.984 993.212 704.903 1037.37 698.242 1042.37 L 713.5 1057.93 L 705.221 1060.21 L 704.018 1059.78 L 694.85 1059.83 C 682.488 1026.37 670.904 1006.22 633.007 997.983 L 635.811 990.77 C 635.205 986.224 635.899 958.325 635.806 951.082 C 644.665 945.011 664.193 923.662 672.552 915.084 C 690.872 896.283 710.472 877.672 728.157 858.43 z"></path>
  <path fill="#D4512F" d="M 728.157 858.43 C 728.833 869.213 728.639 880.937 729.389 891.124 C 719.953 899.538 711.07 908.762 702.455 918.014 C 680.112 942.012 656.261 965.118 635.811 990.77 C 635.205 986.224 635.899 958.325 635.806 951.082 C 644.665 945.011 664.193 923.662 672.552 915.084 C 690.872 896.283 710.472 877.672 728.157 858.43 z"></path>
  <path fill="#F9DCBC" d="M 704.018 1059.78 C 702.668 1059.1 699.638 1058.44 697.998 1058 C 694.011 1052.35 695.112 1048.55 698.242 1042.37 L 713.5 1057.93 L 705.221 1060.21 L 704.018 1059.78 z"></path>
  <path fill="#A9B385" d="M 1232.42 1722.09 C 1239.21 1718.19 1274.35 1704.41 1283.56 1700.91 C 1294.56 1696.73 1321.65 1684.12 1331.01 1681.06 L 1332.18 1681.92 C 1332.04 1685.41 1332.35 1684.37 1328.81 1687.58 C 1316.77 1698.49 1283.92 1720.54 1274.74 1731.22 L 1275.03 1732.99 C 1281.05 1736.48 1396.42 1691.68 1399.97 1693.37 C 1368.71 1704.95 1337.13 1715.71 1305.54 1726.38 C 1289.36 1731.85 1270.01 1740.07 1254.11 1744.74 C 1271.28 1731.34 1288.34 1717.8 1305.3 1704.13 C 1315.14 1696.32 1324.81 1689.35 1334.21 1680.96 C 1313.65 1689.9 1292.99 1698.61 1272.23 1707.08 C 1260.53 1711.91 1244.83 1718.81 1232.88 1722.81 L 1232.42 1722.09 z"></path>
</svg>
