<svg xmlns="http://www.w3.org/2000/svg" id="Technology" viewBox="0 0 1000 1000">
  <path d="M835 516.12H500.39a16 16 0 0 1 0-32H835a16 16 0 0 1 0 32ZM650.15 306.12H500.39a16 16 0 0 1 0-32H634.15V165a16 16 0 0 1 32 0V290.12A16 16 0 0 1 650.15 306.12ZM650.15 851a16 16 0 0 1-16-16V726.12H500.39a16 16 0 0 1 0-32H650.15a16 16 0 0 1 16 16V835A16 16 0 0 1 650.15 851Z" fill="#f89b00" class="colorec2e18 svgShape"></path>
  <path d="M650.15 181a48.5 48.5 0 1 1 48.5-48.5A48.56 48.56 0 0 1 650.15 181Zm0-65a16.5 16.5 0 1 0 16.5 16.5A16.52 16.52 0 0 0 650.15 116ZM500.39 411.12a16 16 0 0 1 0-32H739.17l95-95a16 16 0 1 1 22.62 22.63l-99.7 99.7a16 16 0 0 1-11.31 4.69Z" fill="#f89b00" class="colorec2e18 svgShape"></path>
  <path d="M867.5 321.89a48.48 48.48 0 1 1 34.29-14.18A48.31 48.31 0 0 1 867.5 321.89Zm0-65a16.5 16.5 0 1 0 11.67 4.83A16.44 16.44 0 0 0 867.5 256.92ZM650.19 916a48.5 48.5 0 1 1 48.5-48.5A48.56 48.56 0 0 1 650.19 916Zm0-65a16.5 16.5 0 1 0 16.5 16.5A16.52 16.52 0 0 0 650.19 851ZM844.52 720.82a15.91 15.91 0 0 1-11.31-4.69l-95-95H500.39a16 16 0 0 1 0-32H744.82a16 16 0 0 1 11.31 4.68l99.7 99.71a16 16 0 0 1-11.31 27.31Z" fill="#f89b00" class="colorec2e18 svgShape"></path>
  <path d="M867.5 776.28a48.49 48.49 0 1 1 34.29-82.77h0a48.48 48.48 0 0 1-34.3 82.77Zm0-65a16.49 16.49 0 1 0 11.67 4.82A16.48 16.48 0 0 0 867.5 711.31ZM867.5 548.62a48.5 48.5 0 1 1 48.5-48.5A48.56 48.56 0 0 1 867.5 548.62Zm0-65a16.5 16.5 0 1 0 16.5 16.5A16.52 16.52 0 0 0 867.5 483.62Z" fill="#f89b00" class="colorec2e18 svgShape"></path>
  <path d="M500.39,866H399.61a16,16,0,0,1-16-16V747.16a253.41,253.41,0,0,1-61.42-25.46l-72.74,72.72a16,16,0,0,1-22.63,0l-71.24-71.24a16,16,0,0,1,0-22.63l72.72-72.74a253.41,253.41,0,0,1-25.46-61.42H100a16,16,0,0,1-16-16V449.61a16,16,0,0,1,16-16H202.84a253.41,253.41,0,0,1,25.46-61.42l-72.72-72.74a16,16,0,0,1,0-22.63l71.24-71.24a16,16,0,0,1,22.63,0l72.74,72.72a253.41,253.41,0,0,1,61.42-25.46V150a16,16,0,0,1,16-16H500.39a16,16,0,0,1,16,16V850A16,16,0,0,1,500.39,866Zm-84.78-32h68.78V166H415.61v99.44A16,16,0,0,1,403,281.09,221.8,221.8,0,0,0,328.48,312a16,16,0,0,1-20-2.12l-70.33-70.32-48.62,48.62,70.32,70.33a16,16,0,0,1,2.12,20A221.8,221.8,0,0,0,231.09,453a16,16,0,0,1-15.65,12.65H116v68.78h99.44A16,16,0,0,1,231.09,547,221.8,221.8,0,0,0,262,621.52a16,16,0,0,1-2.12,20l-70.32,70.33,48.62,48.62,70.33-70.32a16,16,0,0,1,20-2.12A221.8,221.8,0,0,0,403,718.91a16,16,0,0,1,12.65,15.65Z" fill="#19a400" class="color56060d svgShape"></path>
  <path d="M451.75,673.5c-95.67,0-173.5-77.83-173.5-173.5s77.83-173.5,173.5-173.5A173,173,0,0,1,505.34,335a16,16,0,0,1,11.05,15.21V649.83A16,16,0,0,1,505.34,665,173,173,0,0,1,451.75,673.5Zm0-315c-78,0-141.5,63.48-141.5,141.5s63.48,141.5,141.5,141.5a141.47,141.47,0,0,0,32.64-3.79V362.29A141.47,141.47,0,0,0,451.75,358.5Z" fill="#19a400" class="color56060d svgShape"></path>
</svg>
